<?xml version="1.0" encoding="utf-8"?>
<!-- Generator: Adobe Illustrator 22.0.1, SVG Export Plug-In . SVG Version: 6.00 Build 0)  -->
<svg version="1.1" id="Layer_1" xmlns="http://www.w3.org/2000/svg" xmlns:xlink="http://www.w3.org/1999/xlink" x="0px" y="0px"
	 viewBox="0 0 1280 265" style="enable-background:new 0 0 1280 265;" xml:space="preserve">
<style type="text/css">
	.st0{fill:none;stroke:#0000FF;stroke-width:5;stroke-miterlimit:10;}
	.st1{fill:#0000FF;}
	.st2{enable-background:new    ;}
</style>
<title>Artboard 1</title>
<line class="st0" x1="-0.5" y1="133.3" x2="1279.5" y2="133.3"/>
<circle class="st1" cx="28.8" cy="133.3" r="15.8"/>
<circle class="st1" cx="411.8" cy="133.3" r="15.8"/>
<circle class="st1" cx="632.8" cy="133.3" r="15.8"/>
<circle class="st1" cx="1148.8" cy="133.3" r="15.8"/>
<circle class="st1" cx="1198.8" cy="133.3" r="15.8"/>
<g class="st2">
	<path class="st1" d="M32.2,94.6l-1.5-1.2l4.3-5.3l4.6,3.7c0,1.3-0.2,2.6-0.6,3.7c-0.4,1.1-0.9,2.1-1.7,3c-1,1.2-2.2,2.1-3.5,2.7
		c-1.3,0.6-2.7,0.7-4.1,0.4c-1.4-0.3-2.7-0.9-3.9-1.9c-1.2-1-2.1-2.1-2.8-3.5c-0.6-1.4-0.8-2.7-0.6-4.1s0.9-2.7,1.9-3.9
		c0.7-0.9,1.5-1.6,2.4-2.1c0.9-0.5,1.7-0.7,2.6-0.7c0.9,0,1.8,0.2,2.8,0.7L31.5,88c-0.8-0.3-1.5-0.5-2.1-0.5c-0.6,0-1.2,0.1-1.8,0.5
		c-0.6,0.3-1.2,0.8-1.7,1.4c-0.6,0.8-1,1.5-1.2,2.2c-0.2,0.7-0.3,1.4-0.2,2.1c0.1,0.6,0.3,1.2,0.6,1.8c0.5,0.9,1.2,1.8,2.1,2.5
		c1.1,0.9,2.2,1.5,3.2,1.7c1.1,0.2,2.1,0.1,3-0.3c1-0.4,1.8-1.1,2.4-1.9c0.6-0.7,1-1.5,1.3-2.4c0.3-0.9,0.4-1.7,0.4-2.3l-2.3-1.9
		L32.2,94.6z"/>
	<path class="st1" d="M43.2,91.1l-9-7.3l1.1-1.4l1.4,1.1c-0.4-0.9-0.5-1.5-0.5-2c0-0.5,0.2-0.9,0.5-1.2c0.4-0.5,1-0.9,1.8-1.2l1,1.7
		c-0.5,0.2-0.9,0.5-1.2,0.9c-0.3,0.3-0.4,0.7-0.4,1.1c0,0.4,0.1,0.8,0.4,1.2c0.4,0.6,0.9,1.2,1.6,1.7l4.7,3.8L43.2,91.1z"/>
	<path class="st1" d="M38.1,75.3l-1.7-1.4l1.3-1.6l1.7,1.4L38.1,75.3z M52.6,79.4l-1.3-1.1c0.4,1.5,0.2,2.9-0.8,4.1
		c-0.4,0.5-0.9,0.9-1.5,1.2c-0.6,0.3-1.1,0.4-1.6,0.4c-0.5,0-1-0.2-1.5-0.4c-0.4-0.2-0.9-0.5-1.5-1.1L38.8,78l1.2-1.5l5,4.1
		c0.8,0.6,1.4,1.1,1.7,1.2c0.5,0.2,1,0.3,1.4,0.2c0.5-0.1,0.9-0.4,1.3-0.9s0.6-1,0.7-1.6c0.1-0.6,0-1.1-0.3-1.6
		c-0.3-0.5-0.8-1.1-1.6-1.7l-4.8-3.9l1.2-1.5l9,7.3L52.6,79.4z M40.7,72.1l-1.7-1.4l1.3-1.6l1.7,1.4L40.7,72.1z"/>
	<path class="st1" d="M55.7,75.6l-9-7.3l1.1-1.4l1.3,1c-0.5-1.5-0.2-2.8,0.8-4.1c0.4-0.5,0.9-1,1.5-1.3c0.6-0.3,1.1-0.4,1.6-0.4
		c0.5,0,1,0.2,1.5,0.4c0.3,0.2,0.8,0.5,1.6,1.1l5.5,4.5l-1.2,1.5l-5.5-4.4c-0.6-0.5-1.1-0.8-1.5-1c-0.4-0.1-0.8-0.1-1.3,0
		c-0.4,0.2-0.8,0.4-1.1,0.8c-0.5,0.6-0.8,1.4-0.7,2.2s0.6,1.7,1.8,2.6l4.9,4L55.7,75.6z"/>
	<path class="st1" d="M52.9,57.3l-1.8-1.4l1.2-1.5l1.8,1.4L52.9,57.3z M63.5,66l-9-7.3l1.2-1.5l9,7.3L63.5,66z"/>
	<path class="st1" d="M66.7,62.1l-9-7.3l1.1-1.4l1.3,1c-0.5-1.5-0.2-2.8,0.8-4.1c0.4-0.5,0.9-1,1.5-1.3c0.6-0.3,1.1-0.4,1.6-0.4
		c0.5,0,1,0.2,1.5,0.4c0.3,0.2,0.8,0.5,1.6,1.1l5.5,4.5l-1.2,1.5l-5.5-4.4c-0.6-0.5-1.1-0.8-1.5-1c-0.4-0.1-0.8-0.1-1.3,0
		c-0.4,0.2-0.8,0.4-1.1,0.8c-0.5,0.6-0.8,1.4-0.7,2.2c0,0.8,0.6,1.7,1.8,2.6l4.9,4L66.7,62.1z"/>
	<path class="st1" d="M75,53.3l1.4-1.3c0.5,0.3,1,0.4,1.4,0.3c0.6-0.1,1.2-0.6,1.7-1.2c0.6-0.7,0.9-1.4,0.9-2s-0.2-1.2-0.6-1.7
		c-0.2-0.3-0.9-0.9-1.9-1.7c0.2,1.3,0,2.5-0.8,3.4c-1,1.2-2.2,1.8-3.7,1.8c-1.4,0-2.8-0.6-4-1.6c-0.9-0.7-1.5-1.5-2-2.4
		s-0.7-1.8-0.6-2.7c0.1-0.9,0.4-1.8,1.1-2.6c0.9-1.1,2-1.6,3.4-1.6l-1.1-0.9l1.1-1.4l7.8,6.3c1.4,1.1,2.3,2.1,2.6,2.8
		c0.4,0.8,0.4,1.6,0.3,2.5c-0.2,0.9-0.6,1.8-1.3,2.7c-0.9,1.1-1.8,1.7-2.8,2C76.9,54.4,76,54.2,75,53.3z M70.6,47.7
		c1.2,1,2.2,1.4,3.2,1.4s1.7-0.4,2.2-1.1c0.6-0.7,0.8-1.5,0.6-2.4c-0.2-0.9-0.8-1.8-2-2.8c-1.1-0.9-2.1-1.3-3.1-1.3
		c-1,0-1.7,0.4-2.3,1.1c-0.6,0.7-0.7,1.5-0.6,2.4C68.9,45.9,69.5,46.8,70.6,47.7z"/>
	<path class="st1" d="M84.4,34.3l1.5-1.4c0.7,1,1.1,2,1,3.1c0,1.1-0.5,2.2-1.3,3.2c-1.1,1.3-2.3,2-3.8,2.1c-1.4,0.1-2.9-0.4-4.3-1.6
		c-1.5-1.2-2.4-2.6-2.6-4c-0.2-1.5,0.2-2.8,1.2-4.1c1-1.2,2.2-1.9,3.6-2c1.4-0.1,2.9,0.5,4.4,1.7c0.1,0.1,0.2,0.2,0.4,0.3l-5.4,6.7
		c1,0.7,2,1.1,3,1c0.9-0.1,1.7-0.5,2.3-1.2c0.5-0.6,0.7-1.2,0.7-1.8C85.1,35.7,84.9,35,84.4,34.3z M77.9,37.3l4.1-5
		c-0.8-0.5-1.5-0.8-2.2-0.8c-1,0-1.8,0.4-2.4,1.2c-0.6,0.7-0.8,1.5-0.7,2.3C76.7,35.8,77.1,36.6,77.9,37.3z"/>
	<path class="st1" d="M90.2,33.2l-9-7.3l1.1-1.4l1.3,1c-0.5-1.5-0.2-2.8,0.8-4.1c0.4-0.5,0.9-1,1.5-1.3c0.6-0.3,1.1-0.4,1.6-0.4
		c0.5,0,1,0.2,1.5,0.4c0.3,0.2,0.8,0.5,1.6,1.1l5.5,4.5l-1.2,1.5l-5.5-4.4c-0.6-0.5-1.1-0.8-1.5-1c-0.4-0.1-0.8-0.1-1.3,0
		c-0.4,0.2-0.8,0.4-1.1,0.8c-0.5,0.6-0.8,1.4-0.7,2.2s0.6,1.7,1.8,2.6l4.9,4L90.2,33.2z"/>
</g>
<g class="st2">
	<path class="st1" d="M414.4,102.2l-15.1-6.8l1.4-1.7l9.7,4.7c1,0.5,2,1,3,1.5c-1.1-1.4-1.7-2.2-1.8-2.4l-6.5-9.2l1.6-2l7.7,3.3
		c1.9,0.8,3.6,1.7,5.2,2.6c-0.7-0.8-1.4-1.7-2.2-2.8l-6.4-8.4l1.3-1.7l9.7,13.5l-1.3,1.6L409,89.4c-1-0.4-1.6-0.7-1.8-0.8
		c0.5,0.6,0.9,1.1,1.2,1.5l7.3,10.3L414.4,102.2z"/>
</g>
<g class="st2">
	<path class="st1" d="M427.6,80l1.5-1.4c0.7,1,1.1,2,1,3.1c0,1.1-0.5,2.1-1.3,3.2c-1.1,1.3-2.3,2-3.8,2.1c-1.4,0.1-2.9-0.4-4.4-1.6
		c-1.5-1.2-2.4-2.6-2.6-4c-0.2-1.5,0.2-2.8,1.2-4.1c1-1.2,2.2-1.9,3.6-2c1.4-0.1,2.9,0.5,4.4,1.7c0.1,0.1,0.2,0.2,0.4,0.3l-5.4,6.7
		c1,0.7,2,1.1,3,1c0.9-0.1,1.7-0.5,2.3-1.2c0.5-0.6,0.7-1.2,0.7-1.8C428.2,81.4,428,80.7,427.6,80z M421,83l4.1-5
		c-0.8-0.5-1.5-0.8-2.2-0.8c-1,0-1.8,0.4-2.4,1.2c-0.6,0.7-0.8,1.5-0.7,2.3C419.9,81.5,420.3,82.3,421,83z"/>
	<path class="st1" d="M434.6,74.4l1.5,0.9c-0.3,0.5-0.5,0.9-0.8,1.3c-0.4,0.6-0.9,0.9-1.3,1.1c-0.4,0.2-0.8,0.2-1.2,0.1
		c-0.4-0.1-1-0.5-2-1.3l-5.2-4.2l-0.9,1.1l-1.2-1l0.9-1.1l-2.2-1.8l0.3-2.3l3.1,2.6l1.2-1.5l1.2,1l-1.2,1.5l5.3,4.3
		c0.4,0.4,0.7,0.6,0.9,0.6c0.2,0,0.3,0,0.5,0c0.2-0.1,0.3-0.2,0.5-0.4C434.3,74.9,434.5,74.7,434.6,74.4z"/>
	<path class="st1" d="M436.6,74.8l-1.2-1l-1.9-11.1c-0.5,0.7-0.9,1.3-1.3,1.8l-3,3.7l-1.2-1l6-7.4l1,0.8l1.8,9.5l0.3,1.8
		c0.5-0.7,1-1.4,1.5-2l3.4-4.2l1.3,1.1L436.6,74.8z"/>
	<path class="st1" d="M433.6,56.7l-1.8-1.4l1.2-1.5l1.8,1.4L433.6,56.7z M444.3,65.3l-9-7.3l1.2-1.5l9,7.3L444.3,65.3z"/>
	<path class="st1" d="M447.4,61.5L435,51.4l1.2-1.5l7.1,5.7l-0.7-6.6l1.6-2l0.5,6.1l8.7,0.8l-1.5,1.9l-7-0.8l0.2,1.9l3.6,2.9
		L447.4,61.5z"/>
	<path class="st1" d="M449.5,49.7c-1.7-1.4-2.5-2.8-2.6-4.4c0-1.3,0.4-2.5,1.3-3.6c1-1.2,2.2-1.9,3.7-2c1.4-0.1,2.9,0.4,4.3,1.5
		c1.2,0.9,1.9,1.9,2.3,2.7c0.4,0.9,0.5,1.8,0.3,2.8c-0.2,1-0.6,1.8-1.2,2.6c-1,1.3-2.3,2-3.7,2.1C452.5,51.5,451,50.9,449.5,49.7z
		 M450.7,48.1c1.2,0.9,2.2,1.4,3.2,1.3c1,0,1.8-0.4,2.4-1.2c0.6-0.8,0.8-1.6,0.7-2.6c-0.2-1-0.8-1.9-2-2.9c-1.1-0.9-2.2-1.3-3.1-1.3
		c-1,0-1.8,0.4-2.4,1.2c-0.6,0.8-0.8,1.6-0.7,2.6C448.9,46.3,449.6,47.2,450.7,48.1z"/>
	<path class="st1" d="M462.3,43.1l-9-7.3l1.1-1.4l1.3,1c-0.5-1.5-0.2-2.8,0.8-4.1c0.4-0.5,0.9-1,1.5-1.3c0.6-0.3,1.1-0.4,1.6-0.4
		c0.5,0,1,0.2,1.5,0.4c0.3,0.2,0.8,0.5,1.6,1.1l5.5,4.5l-1.2,1.5l-5.5-4.4c-0.6-0.5-1.1-0.8-1.5-1c-0.4-0.1-0.8-0.1-1.3,0
		c-0.4,0.2-0.8,0.4-1.1,0.8c-0.5,0.6-0.8,1.4-0.7,2.2c0,0.8,0.6,1.7,1.8,2.6l4.9,4L462.3,43.1z"/>
</g>
<g class="st2">
	<path class="st1" d="M627.9,86.1l1.3-1.6l7.2,5.8c1.2,1,2.1,2,2.6,2.8s0.7,1.9,0.6,3c-0.1,1.1-0.7,2.3-1.7,3.5
		c-0.9,1.2-1.9,2-2.9,2.4c-1,0.4-2,0.5-3,0.2c-1-0.3-2.2-1-3.5-2.1l-7.2-5.8l1.3-1.6l7.2,5.8c1.1,0.9,2,1.4,2.6,1.6
		c0.7,0.2,1.3,0.2,2-0.1s1.3-0.7,1.9-1.5c1-1.2,1.4-2.3,1.3-3.3c-0.1-1-1-2.1-2.5-3.3L627.9,86.1z"/>
	<path class="st1" d="M640.5,90.4l1-1.7c0.7,0.4,1.3,0.5,2,0.4c0.6-0.1,1.2-0.5,1.8-1.2c0.6-0.7,0.8-1.3,0.8-1.9
		c0-0.6-0.2-1-0.6-1.3c-0.3-0.3-0.7-0.3-1.2-0.2c-0.3,0.1-0.9,0.5-1.8,1.1c-1.2,0.9-2.1,1.5-2.6,1.7c-0.6,0.3-1.1,0.4-1.7,0.3
		c-0.5-0.1-1-0.3-1.5-0.6c-0.4-0.3-0.7-0.7-0.9-1.2c-0.2-0.5-0.3-0.9-0.2-1.4c0-0.4,0.1-0.8,0.3-1.3s0.5-1,0.9-1.5
		c0.6-0.7,1.2-1.2,1.8-1.6c0.6-0.4,1.2-0.5,1.8-0.5c0.6,0,1.2,0.2,1.8,0.6l-1,1.7c-0.5-0.3-1-0.4-1.6-0.3c-0.5,0.1-1,0.5-1.5,1.1
		c-0.6,0.7-0.9,1.3-0.9,1.8c0,0.5,0.1,0.9,0.4,1.1c0.2,0.2,0.4,0.2,0.7,0.2c0.3,0,0.6-0.1,0.9-0.3c0.2-0.1,0.7-0.5,1.5-1
		c1.2-0.8,2-1.4,2.5-1.7c0.5-0.3,1.1-0.4,1.6-0.4c0.5,0,1.1,0.3,1.6,0.7c0.5,0.4,0.9,0.9,1.1,1.6c0.2,0.7,0.2,1.4,0,2.1
		c-0.2,0.8-0.6,1.5-1.2,2.2c-0.9,1.2-1.9,1.9-2.9,2.1C642.6,91.2,641.6,91,640.5,90.4z"/>
	<path class="st1" d="M652.1,78.9l1.5,0.9c-0.3,0.5-0.5,0.9-0.8,1.3c-0.4,0.6-0.9,0.9-1.3,1.1c-0.4,0.2-0.8,0.2-1.2,0.1
		c-0.4-0.1-1-0.5-2-1.3l-5.2-4.2l-0.9,1.1l-1.2-1l0.9-1.1l-2.2-1.8l0.3-2.3l3.1,2.6l1.2-1.5l1.2,1l-1.2,1.5l5.3,4.3
		c0.4,0.4,0.7,0.6,0.9,0.6c0.2,0,0.3,0,0.5,0c0.2-0.1,0.3-0.2,0.5-0.4C651.7,79.4,651.9,79.2,652.1,78.9z"/>
	<path class="st1" d="M656.8,70l1.5-1.4c0.7,1,1.1,2,1,3.1c0,1.1-0.5,2.2-1.3,3.2c-1.1,1.3-2.3,2-3.8,2.1c-1.4,0.1-2.9-0.4-4.3-1.6
		c-1.5-1.2-2.4-2.6-2.6-4c-0.2-1.5,0.2-2.8,1.2-4.1c1-1.2,2.2-1.9,3.6-2c1.4-0.1,2.9,0.5,4.4,1.7c0.1,0.1,0.2,0.2,0.4,0.3l-5.4,6.7
		c1,0.7,2,1.1,3,1c0.9-0.1,1.7-0.5,2.3-1.2c0.5-0.6,0.7-1.2,0.7-1.8C657.4,71.5,657.2,70.8,656.8,70z M650.2,73l4.1-5
		c-0.8-0.5-1.5-0.8-2.2-0.8c-1,0-1.8,0.4-2.4,1.2c-0.6,0.7-0.8,1.5-0.7,2.3C649.1,71.5,649.5,72.3,650.2,73z"/>
	<path class="st1" d="M662.5,68.9l-9-7.3l1.1-1.4l1.4,1.1c-0.4-0.9-0.5-1.5-0.5-2c0-0.5,0.2-0.9,0.5-1.2c0.4-0.5,1-0.9,1.8-1.2
		l1,1.7c-0.5,0.2-0.9,0.5-1.2,0.9c-0.3,0.3-0.4,0.7-0.4,1.1c0,0.4,0.1,0.8,0.4,1.2c0.4,0.6,0.9,1.2,1.6,1.7l4.7,3.8L662.5,68.9z"/>
</g>
<g class="st2">
	<path class="st1" d="M1145.7,101.7l1.1-1.7c0.7,0.4,1.3,0.7,1.9,0.7c0.6,0.1,1.3-0.1,2-0.5c0.7-0.4,1.3-0.9,1.9-1.6
		c0.5-0.6,0.9-1.3,1.1-1.9c0.2-0.6,0.2-1.2,0.1-1.7c-0.1-0.5-0.4-0.9-0.8-1.2c-0.4-0.3-0.8-0.5-1.3-0.5s-1,0.2-1.6,0.5
		c-0.4,0.2-1.2,0.8-2.4,1.7c-1.2,0.9-2.1,1.5-2.7,1.8c-0.8,0.3-1.5,0.5-2.2,0.4c-0.7-0.1-1.3-0.4-1.9-0.8c-0.6-0.5-1.1-1.2-1.3-2
		s-0.2-1.7,0-2.6c0.3-0.9,0.7-1.8,1.4-2.6c0.7-0.9,1.6-1.6,2.4-2.1s1.7-0.6,2.6-0.6c0.9,0.1,1.7,0.4,2.5,1l-1.2,1.7
		c-0.9-0.6-1.7-0.7-2.5-0.6c-0.8,0.2-1.6,0.7-2.4,1.7c-0.8,1-1.2,1.9-1.2,2.6s0.3,1.3,0.8,1.8c0.4,0.4,0.9,0.5,1.5,0.4
		c0.5-0.1,1.5-0.7,2.9-1.8c1.4-1.1,2.4-1.8,3-2.1c0.9-0.5,1.8-0.6,2.6-0.6c0.8,0.1,1.5,0.4,2.2,0.9c0.7,0.5,1.1,1.2,1.4,2.1
		c0.3,0.9,0.3,1.8,0,2.7s-0.7,1.9-1.5,2.8c-0.9,1.1-1.8,1.9-2.8,2.4s-1.9,0.7-2.9,0.6C1147.4,102.7,1146.5,102.3,1145.7,101.7z"/>
	<path class="st1" d="M1160.7,88.5l1.5,0.9c-0.3,0.5-0.5,0.9-0.8,1.3c-0.4,0.6-0.9,0.9-1.3,1.1c-0.4,0.2-0.8,0.2-1.2,0.1
		c-0.4-0.1-1-0.5-2-1.3l-5.2-4.2l-0.9,1.1l-1.2-1l0.9-1.1l-2.2-1.8l0.3-2.3l3.1,2.6l1.2-1.5l1.2,1l-1.2,1.5l5.3,4.3
		c0.4,0.4,0.7,0.6,0.9,0.6c0.2,0,0.3,0,0.5,0c0.2-0.1,0.3-0.2,0.5-0.4C1160.3,89.1,1160.5,88.8,1160.7,88.5z"/>
	<path class="st1" d="M1166.9,81.4c0,1-0.1,1.8-0.3,2.5s-0.6,1.3-1.1,1.9c-0.8,1-1.7,1.6-2.6,1.7c-0.9,0.1-1.7-0.1-2.5-0.7
		c-0.4-0.4-0.8-0.8-1-1.3c-0.2-0.5-0.3-1-0.2-1.5c0-0.5,0.2-1,0.4-1.5c0.2-0.4,0.5-0.9,0.9-1.5c0.9-1.4,1.4-2.4,1.7-3.1
		c-0.2-0.2-0.3-0.3-0.4-0.3c-0.6-0.5-1.2-0.7-1.7-0.6c-0.7,0.1-1.3,0.5-1.9,1.3c-0.6,0.7-0.9,1.3-0.9,1.9c0,0.5,0.2,1.2,0.7,1.8
		l-1.4,1.3c-0.5-0.7-0.9-1.3-1-1.9s-0.1-1.3,0.2-2.1c0.3-0.8,0.7-1.5,1.3-2.3c0.6-0.8,1.2-1.3,1.8-1.7c0.6-0.3,1.1-0.5,1.5-0.5
		c0.5,0,0.9,0.1,1.4,0.4c0.3,0.2,0.8,0.5,1.5,1.1l2,1.7c1.4,1.2,2.3,1.8,2.8,2.1c0.4,0.2,0.9,0.4,1.4,0.5l-1.3,1.6
		C1167.8,81.9,1167.4,81.7,1166.9,81.4z M1163.4,78.7c-0.2,0.7-0.7,1.7-1.4,3c-0.4,0.7-0.7,1.2-0.8,1.6c-0.1,0.4-0.1,0.7,0,1
		c0.1,0.3,0.3,0.6,0.6,0.8c0.4,0.3,0.9,0.5,1.4,0.4c0.5-0.1,1-0.4,1.5-1c0.5-0.6,0.8-1.2,0.9-1.9c0.1-0.7,0-1.3-0.2-1.9
		c-0.2-0.4-0.7-0.9-1.3-1.5L1163.4,78.7z"/>
	<path class="st1" d="M1175.8,72.7l-1.1-0.9c0.4,1.3,0.2,2.5-0.7,3.6c-0.6,0.7-1.3,1.2-2.2,1.5s-1.8,0.3-2.8,0.1
		c-1-0.2-1.9-0.7-2.8-1.5c-0.9-0.7-1.6-1.5-2.1-2.4c-0.5-0.9-0.7-1.8-0.6-2.7s0.4-1.7,1-2.5c0.4-0.5,0.9-0.9,1.5-1.2
		c0.6-0.2,1.2-0.3,1.7-0.3l-4.5-3.6l1.2-1.5l12.4,10.1L1175.8,72.7z M1167.4,73.8c1.2,0.9,2.2,1.4,3.2,1.4c1,0,1.7-0.4,2.3-1
		c0.5-0.7,0.7-1.5,0.6-2.4c-0.2-0.9-0.8-1.8-1.9-2.7c-1.2-1-2.3-1.5-3.3-1.5c-1,0-1.7,0.4-2.3,1.1c-0.5,0.7-0.7,1.5-0.5,2.4
		C1165.5,71.9,1166.2,72.9,1167.4,73.8z"/>
	<path class="st1" d="M1181,60.3l1.5-1.4c0.7,1,1.1,2,1,3.1c0,1.1-0.5,2.1-1.3,3.2c-1.1,1.3-2.3,2-3.8,2.1c-1.4,0.1-2.9-0.4-4.3-1.6
		c-1.5-1.2-2.4-2.6-2.6-4c-0.2-1.5,0.2-2.8,1.2-4.1c1-1.2,2.2-1.9,3.6-2c1.4-0.1,2.9,0.5,4.4,1.7c0.1,0.1,0.2,0.2,0.4,0.3l-5.4,6.7
		c1,0.7,2,1.1,3,1c0.9-0.1,1.7-0.5,2.3-1.2c0.5-0.6,0.7-1.2,0.7-1.8C1181.7,61.8,1181.5,61.1,1181,60.3z M1174.5,63.3l4.1-5
		c-0.8-0.5-1.5-0.8-2.2-0.8c-1,0-1.8,0.4-2.4,1.2c-0.6,0.7-0.8,1.5-0.7,2.3C1173.3,61.9,1173.8,62.7,1174.5,63.3z"/>
	<path class="st1" d="M1186.7,59.2l-12.4-10.1l1.2-1.5l12.4,10.1L1186.7,59.2z"/>
	<path class="st1" d="M1189.9,55.3l-12.4-10.1l1.2-1.5l4.5,3.6c-0.2-1.4,0.1-2.6,1-3.7c0.5-0.7,1.1-1.1,1.8-1.4
		c0.7-0.3,1.3-0.3,1.9-0.2c0.6,0.2,1.4,0.6,2.3,1.3l5.7,4.6l-1.2,1.5l-5.7-4.6c-0.8-0.6-1.5-0.9-2.1-0.9c-0.6,0-1.2,0.4-1.7,1
		c-0.4,0.5-0.6,1-0.7,1.6c-0.1,0.6,0,1.1,0.3,1.6c0.3,0.5,0.7,1,1.5,1.6l4.9,4L1189.9,55.3z"/>
	<path class="st1" d="M1192.8,42.6c-1.7-1.4-2.5-2.8-2.6-4.4c0-1.3,0.4-2.5,1.3-3.6c1-1.2,2.2-1.9,3.7-2c1.4-0.1,2.9,0.4,4.3,1.5
		c1.2,0.9,1.9,1.9,2.3,2.7c0.4,0.9,0.5,1.8,0.3,2.8c-0.2,1-0.6,1.8-1.2,2.6c-1,1.3-2.3,2-3.7,2.1
		C1195.8,44.4,1194.3,43.8,1192.8,42.6z M1194,41c1.2,0.9,2.2,1.4,3.2,1.3c1,0,1.8-0.4,2.4-1.2c0.6-0.8,0.8-1.6,0.7-2.6
		s-0.8-1.9-2-2.9c-1.1-0.9-2.2-1.3-3.1-1.3c-1,0-1.8,0.4-2.4,1.2c-0.6,0.8-0.8,1.6-0.7,2.6C1192.2,39.1,1192.9,40.1,1194,41z"/>
	<path class="st1" d="M1205.8,35.7l-7.8-6.3l-1.1,1.3l-1.2-1l1.1-1.3l-1-0.8c-0.6-0.5-1-0.9-1.2-1.3c-0.3-0.5-0.4-1-0.3-1.6
		s0.4-1.2,0.9-1.9c0.3-0.4,0.8-0.9,1.3-1.3l1.1,1.3c-0.3,0.3-0.6,0.5-0.8,0.8c-0.4,0.5-0.5,0.9-0.5,1.2s0.3,0.7,0.9,1.2l0.8,0.7
		l1.4-1.8l1.2,1l-1.4,1.8l7.8,6.3L1205.8,35.7z"/>
	<path class="st1" d="M1211.6,22.7l1.5-1.4c0.7,1,1.1,2,1,3.1c0,1.1-0.5,2.1-1.3,3.2c-1.1,1.3-2.3,2-3.8,2.1s-2.9-0.4-4.4-1.6
		c-1.5-1.2-2.4-2.6-2.6-4c-0.2-1.5,0.2-2.8,1.2-4.1c1-1.2,2.2-1.9,3.6-2c1.4-0.1,2.9,0.5,4.4,1.7c0.1,0.1,0.2,0.2,0.4,0.3l-5.4,6.7
		c1,0.7,2,1.1,3,1s1.7-0.5,2.3-1.2c0.5-0.6,0.7-1.2,0.7-1.8C1212.2,24.1,1212,23.5,1211.6,22.7z M1205,25.7l4.1-5
		c-0.8-0.5-1.5-0.8-2.2-0.8c-1,0-1.8,0.4-2.4,1.2c-0.6,0.7-0.8,1.5-0.7,2.3C1203.9,24.2,1204.3,25,1205,25.7z"/>
	<path class="st1" d="M1217.3,21.6l-9-7.3l1.1-1.4l1.3,1c-0.5-1.5-0.2-2.8,0.8-4.1c0.4-0.5,0.9-1,1.5-1.3c0.6-0.3,1.1-0.4,1.6-0.4
		c0.5,0,1,0.2,1.5,0.4c0.3,0.2,0.8,0.5,1.6,1.1l5.5,4.5l-1.2,1.5l-5.5-4.4c-0.6-0.5-1.1-0.8-1.5-1c-0.4-0.1-0.8-0.1-1.3,0
		c-0.4,0.2-0.8,0.4-1.1,0.8c-0.5,0.6-0.8,1.4-0.7,2.2c0,0.8,0.6,1.7,1.8,2.6l4.9,4L1217.3,21.6z"/>
</g>
<g class="st2">
	<path class="st1" d="M1199,105.3l-1.5-1.2l-2.8-12.8c-0.2-0.9-0.3-1.7-0.4-2.5l-5.6,6.9l-1.5-1.2l7.2-8.9l1.5,1.2l3,14l0.3,1.5
		l6.4-7.9l1.5,1.2L1199,105.3z"/>
	<path class="st1" d="M1198.4,84l-1.7-1.4l1.3-1.6l1.7,1.4L1198.4,84z M1213,88l-1.3-1.1c0.4,1.5,0.2,2.9-0.8,4.1
		c-0.4,0.5-0.9,0.9-1.5,1.2c-0.6,0.3-1.1,0.4-1.6,0.4c-0.5,0-1-0.2-1.5-0.4c-0.4-0.2-0.9-0.5-1.5-1.1l-5.6-4.5l1.2-1.5l5,4.1
		c0.8,0.6,1.4,1.1,1.7,1.2c0.5,0.2,1,0.3,1.4,0.2c0.5-0.1,0.9-0.4,1.3-0.9s0.6-1,0.7-1.6c0.1-0.6,0-1.1-0.3-1.6
		c-0.3-0.5-0.8-1.1-1.6-1.7l-4.8-3.9l1.2-1.5l9,7.3L1213,88z M1201,80.8l-1.7-1.4l1.3-1.6l1.7,1.4L1201,80.8z"/>
	<path class="st1" d="M1216,84.3l-9-7.3l1.1-1.4l1.4,1.1c-0.4-0.9-0.5-1.5-0.5-2c0-0.5,0.2-0.9,0.5-1.2c0.4-0.5,1-0.9,1.8-1.2l1,1.7
		c-0.5,0.2-0.9,0.5-1.2,0.9c-0.3,0.3-0.4,0.7-0.4,1.1c0,0.4,0.1,0.8,0.4,1.2c0.4,0.6,0.9,1.2,1.6,1.7l4.7,3.8L1216,84.3z"/>
	<path class="st1" d="M1210.1,69.8l-1.8-1.4l1.2-1.5l1.8,1.4L1210.1,69.8z M1220.7,78.5l-9-7.3l1.2-1.5l9,7.3L1220.7,78.5z"/>
	<path class="st1" d="M1225.3,66.1l1.4-1.3c0.9,1,1.4,2.1,1.4,3.2c0,1.1-0.3,2.2-1.1,3.2c-1,1.2-2.2,1.9-3.6,2
		c-1.4,0.1-2.9-0.5-4.4-1.7c-1-0.8-1.7-1.6-2.2-2.6c-0.5-0.9-0.6-1.8-0.4-2.8c0.2-1,0.6-1.8,1.2-2.6c0.8-1,1.7-1.6,2.7-1.8
		c1-0.2,2,0,3.1,0.5l-1,1.7c-0.7-0.3-1.4-0.5-2-0.4c-0.6,0.1-1.1,0.4-1.5,0.9c-0.6,0.8-0.9,1.6-0.7,2.5c0.2,0.9,0.8,1.9,2,2.8
		c1.2,1,2.3,1.5,3.2,1.4c0.9,0,1.7-0.4,2.3-1.1c0.5-0.6,0.7-1.2,0.7-1.9C1226.4,67.6,1226,66.8,1225.3,66.1z"/>
	<path class="st1" d="M1230.9,66l-12.4-10.1l1.2-1.5l4.5,3.6c-0.2-1.4,0.1-2.6,1-3.7c0.5-0.7,1.1-1.1,1.8-1.4
		c0.7-0.3,1.3-0.3,1.9-0.2c0.6,0.2,1.4,0.6,2.3,1.3l5.7,4.6l-1.2,1.5l-5.7-4.6c-0.8-0.6-1.5-0.9-2.1-0.9c-0.6,0-1.2,0.4-1.7,1
		c-0.4,0.5-0.6,1-0.7,1.6c-0.1,0.6,0,1.1,0.3,1.6c0.3,0.5,0.7,1,1.5,1.6l4.9,4L1230.9,66z"/>
	<path class="st1" d="M1242.8,51.3l-12.4-10.1l1.3-1.6l5.1,4.1l5.2-6.5l-5.1-4.1l1.3-1.6l12.4,10.1l-1.3,1.6l-5.9-4.8l-5.2,6.5
		l5.9,4.8L1242.8,51.3z"/>
	<path class="st1" d="M1252.9,38.8l-12.4-10.1l3.8-4.7c0.8-0.9,1.5-1.6,2.2-2c0.7-0.4,1.5-0.5,2.3-0.4c0.8,0.1,1.5,0.4,2,0.8
		c0.5,0.4,0.9,1,1.1,1.6c0.2,0.7,0.3,1.4,0.1,2.2c0.8-0.6,1.7-0.8,2.5-0.8c0.9,0,1.6,0.3,2.4,0.9c0.6,0.5,1,1,1.3,1.7
		c0.3,0.7,0.4,1.3,0.4,1.8c0,0.6-0.2,1.2-0.5,1.9c-0.3,0.7-0.8,1.4-1.4,2.2L1252.9,38.8z M1247,31.4l2.2-2.7c0.6-0.7,1-1.3,1.1-1.7
		c0.2-0.5,0.3-1,0.1-1.4c-0.1-0.4-0.4-0.8-0.8-1.2c-0.4-0.3-0.9-0.5-1.3-0.6c-0.5-0.1-0.9,0.1-1.3,0.3s-1,0.9-1.7,1.7l-2,2.5
		L1247,31.4z M1252.8,36l2.5-3.1c0.4-0.5,0.7-0.9,0.8-1.2c0.2-0.4,0.4-0.8,0.4-1.2c0-0.4,0-0.8-0.2-1.2c-0.2-0.4-0.5-0.8-0.8-1.1
		c-0.5-0.4-1-0.6-1.5-0.6c-0.5,0-1,0.1-1.5,0.4s-1,0.9-1.7,1.6l-2.3,2.9L1252.8,36z"/>
</g>
</svg>
