<?xml version="1.0" encoding="utf-8"?>
<!-- Generator: Adobe Illustrator 22.0.1, SVG Export Plug-In . SVG Version: 6.00 Build 0)  -->
<svg version="1.1" id="Ebene_1" xmlns="http://www.w3.org/2000/svg" xmlns:xlink="http://www.w3.org/1999/xlink" x="0px" y="0px"
	 viewBox="0 0 1280 800" style="enable-background:new 0 0 1280 800;" xml:space="preserve">
<style type="text/css">
	.st0{clip-path:url(#SVGID_2_);fill:#E20613;}
	.st1{clip-path:url(#SVGID_2_);fill:none;stroke:#E20613;}
	.st2{clip-path:url(#SVGID_2_);fill:#5CB75C;}
	.st3{clip-path:url(#SVGID_2_);fill:#EFAC4F;}
	.st4{clip-path:url(#SVGID_2_);fill:#5CBEDD;}
	.st5{clip-path:url(#SVGID_2_);fill:#FFEC00;}
	.st6{clip-path:url(#SVGID_2_);fill:#4F5CD5;}
</style>
<g>
	<defs>
		<rect id="SVGID_1_" x="15" y="82" width="1249" height="533.6"/>
	</defs>
	<clipPath id="SVGID_2_">
		<use xlink:href="#SVGID_1_"  style="overflow:visible;"/>
	</clipPath>
	<path class="st0" d="M87.5,440.2c39.7,0,72-32.2,72-72s-32.2-72-72-72s-72,32.2-72,72S47.8,440.2,87.5,440.2"/>
	<circle class="st1" cx="87.5" cy="368.3" r="72"/>
	<path class="st2" d="M338.6,325.5c67.2,0,121.8-54.5,121.8-121.8S405.9,82,338.6,82s-121.8,54.5-121.8,121.8
		S271.4,325.5,338.6,325.5"/>
	<path class="st3" d="M517.2,615.6c71.4,0,129.3-57.9,129.3-129.3s-57.9-129.3-129.3-129.3s-129.3,57.9-129.3,129.3
		S445.8,615.6,517.2,615.6"/>
	<path class="st4" d="M827.8,477c37.4,0,67.6-30.3,67.6-67.6s-30.3-67.6-67.6-67.6c-37.4,0-67.6,30.3-67.6,67.6S790.4,477,827.8,477
		"/>
	<path class="st5" d="M1100,433.7c65.2,0,118-52.8,118-118s-52.8-118-118-118s-118,52.8-118,118S1034.9,433.7,1100,433.7"/>
	<path class="st6" d="M1215,584.8c27.1,0,49-21.9,49-49c0-27.1-21.9-49-49-49s-49,21.9-49,49C1166,562.8,1188,584.8,1215,584.8"/>
</g>
</svg>
