<?xml version="1.0" encoding="utf-8"?>
<!-- Generator: Adobe Illustrator 22.0.1, SVG Export Plug-In . SVG Version: 6.00 Build 0)  -->
<svg version="1.1" id="Ebene_1" xmlns="http://www.w3.org/2000/svg" xmlns:xlink="http://www.w3.org/1999/xlink" x="0px" y="0px"
	 viewBox="0 0 1280 800" style="enable-background:new 0 0 1280 800;" xml:space="preserve">
<style type="text/css">
	.st0{fill:#4FC64F;}
</style>
<path class="st0" d="M5,40c5.6,0.8,11.1,1.7,16.7,2.5c34.5,5.3,68.1,14.5,101,25.9c27,9.4,53.9,19.4,79.1,33
	c17.5,9.5,33.6,21.2,48.7,34.3c8.4,7.3,16.4,15,24.1,22.9c16.7,17,31.4,35.7,45.4,54.9c14.4,19.8,27.5,40.5,41.6,60.5
	c3.8,5.3,7.8,10.5,12.6,14.9c5.3,4.9,10.2,5.1,16,0.9c6.7-4.9,10.9-11.9,15.5-18.4c5.2-7.4,10.2-14.9,16.1-21.8
	c15.5-18.1,35-27.5,59.2-25.5c11.6,0.9,21.5,6.1,30.4,13.4c14.7,12.1,25,27.6,35.3,43.3c8.3,12.8,16,25.9,25.9,37.6
	c5.3,6.2,11.2,12,19.7,13.8c6.4,1.3,12.6,0,18.4-2.4c7.3-3,13.4-7.8,19.3-13.1c9.5-8.5,18.4-17.8,30.3-23
	c22.2-9.7,47.4-7.8,67.2,8.5c10.8,8.9,19.5,19.5,28.3,30.2c4.4,5.4,8.8,10.7,14.1,15.4c9.2,8,16,6.2,25.4,1.3
	c5.7-3,11.1-6.7,16.4-10.3c14.1-9.3,28.9-16.6,45.7-19.7c21.4-4,41.2-0.2,59.7,10.9c12.5,7.5,23.5,16.8,34.2,26.6
	c9.6,8.8,18.3,18.3,28.3,26.7c6.4,5.3,13.8,7.6,21.5,9.6c11.5,3,23.1,5.5,34.9,6.5c0,0.4,0,0.8,0,1.2c-15.7,2-31.3,5-46.3,10
	c-5.2,1.7-9.2,5.2-13.2,8.7c-6.5,5.6-12.3,11.8-18.5,17.7c-12.6,12.1-25.6,23.7-40.7,32.9c-10.8,6.6-22.4,11-34.8,12.5
	c-6.1,0.7-12.5,0.5-18.8-0.4c-7.2-1-14.3-2.4-21.1-4.8c-9.6-3.3-18.5-8.2-27.1-13.6c-7.7-4.9-15-10.6-23.5-14.1
	c-10.2-4.3-16.2-3-24.2,4.6c-6.9,6.5-12.4,14.1-18.4,21.3c-10.9,13-22.3,25.3-38.2,32.2c-5.4,2.4-10.9,4.1-16.8,4.4
	c-9.8,0.5-19.5,0.2-28.8-3.3c-8.9-3.4-16.6-8.6-23.8-14.8c-9.1-7.7-17.2-16.8-28.1-22.3c-7.2-3.6-14.7-4.3-22.3-3.5
	c-5.2,0.5-9.3,4-13,7.4c-7.6,7-13.3,15.4-18.9,23.9c-9.6,14.3-18.2,29.2-28.8,42.8c-9.3,11.9-19.6,22.8-33.7,29.4
	c-7.4,3.4-15.3,5.4-23.3,5c-14.6-0.9-28.1-5.1-39.7-14.7c-9.9-8.1-17.5-18-24.8-28.3c-5-7.1-9.5-14.6-15.8-20.9
	c-2.6-2.6-5.6-4.5-9.1-5.4c-4.3-1.1-7.5,1.3-10.4,4c-7.8,7.4-13.7,16.5-19.7,25.3c-15.4,22.6-30.3,45.5-47.2,67.1
	c-7.7,9.8-15.7,19.4-24.1,28.7c-6.2,7-12.8,13.6-19.5,20c-19.5,18.8-40.9,35-64.9,47.7c-16.3,8.7-33.5,15.4-50.6,22.1
	c-13.5,5.3-27.1,10.2-41,14.5c-18.4,5.8-37,11.1-55.8,15.1c-12.1,2.6-24.3,4.9-36.5,6.7c-2.3,0.3-4.8-0.4-6.9,1.2
	c-2.4,0-5.8,1-7.1-0.3c-1.2-1.2-0.3-4.6-0.3-7.1c0-236,0-472,0-708C0.4,40,0.4,40,5,40z"/>
</svg>
