<?xml version="1.0" encoding="utf-8"?>
<!-- Generator: Adobe Illustrator 22.0.1, SVG Export Plug-In . SVG Version: 6.00 Build 0)  -->
<svg version="1.1" id="Ebene_1" xmlns="http://www.w3.org/2000/svg" xmlns:xlink="http://www.w3.org/1999/xlink" x="0px" y="0px"
	 viewBox="0 0 1280 800" style="enable-background:new 0 0 1280 800;" xml:space="preserve">
<style type="text/css">
	.st0{enable-background:new    ;}
	.st1{fill:#FFFFFF;}
	.st2{clip-path:url(#SVGID_2_);}
	.st3{clip-path:url(#SVGID_4_);}
	.st4{clip-path:url(#SVGID_6_);}
	.st5{clip-path:url(#SVGID_8_);}
	.st6{clip-path:url(#SVGID_10_);}
	.st7{clip-path:url(#SVGID_12_);}
</style>
<g class="st0">
	<path class="st1" d="M121.7,721.1v0.4c0,1.3,0.1,2.6,0.4,3.8c0.2,1.2,0.6,2.4,1.1,3.5s1.1,2.1,1.8,3c0.7,0.9,1.5,1.6,2.5,2.2h23.3
		v5.5h-33.5v-4.2l5.3-1.1v-0.1c-0.9-0.5-1.7-1.2-2.4-2s-1.4-1.7-2-2.7s-1-2.1-1.3-3.2c-0.3-1.2-0.5-2.4-0.5-3.7c0-0.2,0-0.5,0-0.7
		s0-0.5,0.1-0.7H121.7z"/>
</g>
<g class="st0">
	<path class="st1" d="M146.9,700.9c0-1.8-0.1-3.5-0.4-4.9c-0.3-1.5-0.7-3-1.3-4.5h4.5c0.6,1.2,1.1,2.7,1.4,4.4
		c0.3,1.8,0.5,3.7,0.5,5.7c0,2.4-0.3,4.6-0.9,6.7c-0.6,2.1-1.6,3.9-3,5.5c-1.4,1.5-3.1,2.7-5.3,3.6c-2.2,0.9-4.8,1.3-7.9,1.3
		c-3.1,0-5.7-0.4-7.9-1.3s-4.1-2-5.6-3.4s-2.6-3-3.4-4.8s-1.1-3.7-1.1-5.7c0-1.9,0.3-3.6,0.9-5.3c0.6-1.6,1.6-3,2.9-4.2
		s3.1-2.1,5.2-2.8s4.7-1,7.6-1c0.3,0,0.5,0,0.7,0s0.7,0,1.4,0v23.1c2.1,0,4-0.3,5.4-1c1.5-0.6,2.7-1.5,3.6-2.6
		c0.9-1.1,1.6-2.4,2-3.9C146.7,704.2,146.9,702.6,146.9,700.9z M121.1,703.7c0,1.3,0.2,2.4,0.7,3.5s1.2,2,2,2.8s1.8,1.5,3,2
		c1.1,0.5,2.4,0.8,3.6,0.9v-17.1c-1.3,0-2.5,0.2-3.7,0.5c-1.1,0.3-2.1,0.8-3,1.5s-1.5,1.5-2,2.5
		C121.4,701.3,121.1,702.5,121.1,703.7z"/>
</g>
<g class="st0">
	<path class="st1" d="M116.4,669.5c0-1.5,0.2-2.7,0.6-3.8s0.8-2,1.3-2.8s1.1-1.4,1.6-1.8c0.5-0.5,0.9-0.8,1.2-0.9V660l-3.8-1.1v-4.1
		h35.4c2.6,0,4.8,0.4,6.7,1.3c1.9,0.8,3.5,2,4.8,3.6c1.3,1.5,2.2,3.4,2.8,5.5s0.9,4.5,0.9,7.1c0,2.2-0.2,4.2-0.6,5.9
		c-0.4,1.7-0.9,3.1-1.4,4.1h-4.6c0.3-0.8,0.6-1.6,0.8-2.3c0.2-0.8,0.4-1.5,0.6-2.3c0.2-0.8,0.3-1.6,0.3-2.4s0.1-1.8,0.1-2.8
		c0-3.9-0.9-6.9-2.7-9s-4.6-3.1-8.4-3.1h-4.5v0.1c1.3,1.2,2.3,2.6,3,4.2c0.7,1.6,1,3.4,1,5.4c0,0.9-0.1,2-0.3,3
		c-0.2,1.1-0.6,2.2-1.1,3.2c-0.5,1.1-1.2,2.1-2,3.1s-1.9,1.9-3.1,2.6c-1.3,0.8-2.7,1.4-4.5,1.8c-1.7,0.5-3.7,0.7-6,0.7
		c-3.1,0-5.8-0.4-8.1-1.3s-4.2-2-5.7-3.3c-1.5-1.4-2.6-3-3.4-4.8C116.8,673.2,116.4,671.4,116.4,669.5z M134.3,678.7
		c2.6,0,4.8-0.3,6.4-1c1.7-0.6,3-1.4,3.9-2.4s1.6-2,1.9-3.2c0.3-1.2,0.5-2.2,0.5-3.3c0-1.7-0.3-3.3-1-4.8s-1.6-2.8-2.8-3.9h-17.5
		c-0.4,0.3-0.9,0.7-1.4,1.3c-0.5,0.5-1,1.2-1.5,1.9s-0.8,1.5-1.2,2.4s-0.5,1.9-0.5,3c0,1.6,0.3,3,1,4.3c0.6,1.2,1.5,2.3,2.7,3.1
		s2.5,1.5,4.1,1.9C130.5,678.5,132.3,678.7,134.3,678.7z"/>
</g>
<g class="st0">
	<path class="st1" d="M146.9,629.7c0-1.8-0.1-3.5-0.4-4.9c-0.3-1.5-0.7-3-1.3-4.5h4.5c0.6,1.2,1.1,2.7,1.4,4.4
		c0.3,1.8,0.5,3.7,0.5,5.7c0,2.4-0.3,4.6-0.9,6.7c-0.6,2.1-1.6,3.9-3,5.5c-1.4,1.5-3.1,2.7-5.3,3.6c-2.2,0.9-4.8,1.3-7.9,1.3
		c-3.1,0-5.7-0.4-7.9-1.3s-4.1-2-5.6-3.4s-2.6-3-3.4-4.8s-1.1-3.7-1.1-5.7c0-1.9,0.3-3.6,0.9-5.3c0.6-1.6,1.6-3,2.9-4.2
		s3.1-2.1,5.2-2.8s4.7-1,7.6-1c0.3,0,0.5,0,0.7,0s0.7,0,1.4,0v23.1c2.1,0,4-0.3,5.4-1c1.5-0.6,2.7-1.5,3.6-2.6
		c0.9-1.1,1.6-2.4,2-3.9C146.7,633,146.9,631.4,146.9,629.7z M121.1,632.5c0,1.3,0.2,2.4,0.7,3.5s1.2,2,2,2.8s1.8,1.5,3,2
		c1.1,0.5,2.4,0.8,3.6,0.9v-17.1c-1.3,0-2.5,0.2-3.7,0.5c-1.1,0.3-2.1,0.8-3,1.5s-1.5,1.5-2,2.5
		C121.4,630.1,121.1,631.3,121.1,632.5z"/>
</g>
<g class="st0">
	<path class="st1" d="M122,606.2L122,606.2c-0.8-0.7-1.5-1.4-2.2-2.1s-1.3-1.6-1.8-2.5s-0.9-1.9-1.2-3c-0.3-1.1-0.4-2.3-0.4-3.6
		c0-1.5,0.2-3,0.6-4.3s1.1-2.5,2-3.5s2.2-1.8,3.7-2.3c1.5-0.6,3.4-0.9,5.6-0.9h22.4v5.5h-21.5c-2.9,0-5,0.6-6.2,1.7
		c-1.3,1.1-1.9,2.7-1.9,4.9c0,1.9,0.5,3.7,1.6,5.5c1,1.8,2.5,3.3,4.3,4.5h23.8v5.5h-33.5v-4.2L122,606.2z"/>
</g>
<g class="st0">
	<path class="st1" d="M79.1,723.6c0-1.8-0.1-3.5-0.4-4.9c-0.3-1.5-0.7-3-1.3-4.5h4.5c0.6,1.2,1.1,2.7,1.4,4.4
		c0.3,1.8,0.5,3.7,0.5,5.7c0,2.4-0.3,4.6-0.9,6.7c-0.6,2.1-1.6,3.9-3,5.5c-1.4,1.5-3.1,2.7-5.3,3.6c-2.2,0.9-4.8,1.3-7.9,1.3
		s-5.7-0.4-7.9-1.3s-4.1-2-5.6-3.4s-2.6-3-3.4-4.8c-0.8-1.8-1.1-3.7-1.1-5.7c0-1.9,0.3-3.6,0.9-5.3c0.6-1.6,1.6-3,2.9-4.2
		s3.1-2.1,5.2-2.8c2.1-0.7,4.7-1,7.6-1c0.3,0,0.5,0,0.7,0s0.7,0,1.4,0V736c2.1,0,4-0.3,5.4-1c1.5-0.6,2.7-1.5,3.6-2.6s1.6-2.4,2-3.9
		C78.9,726.9,79.1,725.3,79.1,723.6z M53.3,726.4c0,1.3,0.2,2.4,0.7,3.5s1.2,2,2,2.8s1.8,1.5,3,2c1.1,0.5,2.4,0.8,3.6,0.9v-17.1
		c-1.3,0-2.5,0.2-3.7,0.5c-1.1,0.3-2.1,0.8-3,1.5s-1.5,1.5-2,2.5C53.5,724,53.3,725.2,53.3,726.4z"/>
</g>
<g class="st0">
	<path class="st1" d="M53.9,687v0.4c0,1.3,0.1,2.6,0.4,3.8c0.2,1.2,0.6,2.4,1.1,3.5s1.1,2.1,1.8,3s1.5,1.6,2.5,2.2H83v5.5H49.5v-4.2
		l5.3-1.1V700c-0.9-0.5-1.7-1.2-2.4-2s-1.4-1.7-2-2.7s-1-2.1-1.3-3.2c-0.3-1.2-0.5-2.4-0.5-3.7c0-0.2,0-0.5,0-0.7s0-0.5,0.1-0.7
		L53.9,687L53.9,687z"/>
</g>
<g class="st0">
	<path class="st1" d="M66.6,684.5c-2.3,0-4.4-0.2-6.2-0.7s-3.4-1.1-4.7-1.8c-1.3-0.8-2.5-1.6-3.4-2.6s-1.6-2.1-2.2-3.1
		s-1-2.2-1.2-3.3s-0.4-2.2-0.4-3.2c0-2,0.3-3.8,1-5.3s1.7-2.9,3-4.1v-0.1H31.9v-5.5h51v4.1l-3.7,1.1v0.1c0.5,0.4,1.1,0.9,1.6,1.5
		c0.6,0.6,1.1,1.2,1.5,2s0.8,1.6,1.1,2.6c0.3,1,0.4,2.2,0.4,3.5c0,1.8-0.3,3.6-0.9,5.4s-1.6,3.3-3,4.7s-3.1,2.5-5.3,3.3
		C72.4,684.1,69.8,684.5,66.6,684.5z M66.6,678.8c1.9,0,3.7-0.2,5.2-0.7c1.6-0.4,2.9-1.1,4-1.9s1.9-1.8,2.5-3s0.9-2.6,0.9-4.1
		c0-1.2-0.2-2.2-0.5-3.1c-0.3-0.9-0.7-1.8-1.2-2.5s-1-1.4-1.5-1.9s-1-0.9-1.5-1.3H57.1c-1.2,1.1-2.1,2.4-2.8,3.9s-1,3.1-1,4.8
		c0,1,0.2,2.1,0.6,3.3c0.4,1.1,1.1,2.2,2.1,3.2s2.4,1.8,4.1,2.4C61.7,678.5,63.9,678.8,66.6,678.8z"/>
</g>
<g class="st0">
	<path class="st1" d="M79.1,629.6c0-1.8-0.1-3.5-0.4-4.9c-0.3-1.5-0.7-3-1.3-4.5h4.5c0.6,1.2,1.1,2.7,1.4,4.4
		c0.3,1.8,0.5,3.7,0.5,5.7c0,2.4-0.3,4.6-0.9,6.7c-0.6,2.1-1.6,3.9-3,5.5c-1.4,1.5-3.1,2.7-5.3,3.6c-2.2,0.9-4.8,1.3-7.9,1.3
		s-5.7-0.4-7.9-1.3s-4.1-2-5.6-3.4s-2.6-3-3.4-4.8c-0.8-1.8-1.1-3.7-1.1-5.7c0-1.9,0.3-3.6,0.9-5.3c0.6-1.6,1.6-3,2.9-4.2
		s3.1-2.1,5.2-2.8c2.1-0.7,4.7-1,7.6-1c0.3,0,0.5,0,0.7,0s0.7,0,1.4,0V642c2.1,0,4-0.3,5.4-1c1.5-0.6,2.7-1.5,3.6-2.6s1.6-2.4,2-3.9
		C78.9,632.9,79.1,631.3,79.1,629.6z M53.3,632.4c0,1.3,0.2,2.4,0.7,3.5s1.2,2,2,2.8s1.8,1.5,3,2c1.1,0.5,2.4,0.8,3.6,0.9v-17.1
		c-1.3,0-2.5,0.2-3.7,0.5c-1.1,0.3-2.1,0.8-3,1.5s-1.5,1.5-2,2.5C53.5,630,53.3,631.2,53.3,632.4z"/>
</g>
<g>
	<g>
		<g>
			<defs>
				<rect id="SVGID_1_" y="-49.2" width="1280" height="960.2"/>
			</defs>
			<clipPath id="SVGID_2_">
				<use xlink:href="#SVGID_1_"  style="overflow:visible;"/>
			</clipPath>
			<g class="st2">
				<g class="st0">
					<path class="st1" d="M218.6,712.1v5.5h-21.5c-1.5,0-2.7,0.2-3.7,0.5s-1.9,0.8-2.5,1.4c-0.7,0.6-1.1,1.3-1.4,2.1
						c-0.3,0.8-0.5,1.8-0.5,2.8c0,2,0.5,3.7,1.6,5.3c1,1.6,2.5,3,4.3,4.3h23.8v5.5h-33.5v-4.2l4.7-1.1v-0.1c-0.8-0.6-1.5-1.3-2.2-2
						s-1.3-1.5-1.8-2.4s-0.9-1.8-1.2-2.9c-0.3-1.1-0.4-2.2-0.4-3.5c0-2.5,0.6-4.6,1.8-6.2c1.2-1.6,2.8-2.9,4.9-3.8v-0.1
						c-2.1-1.5-3.7-3.2-4.9-5.1c-1.2-1.9-1.8-4.1-1.8-6.7c0-1.2,0.2-2.4,0.5-3.7s0.9-2.5,1.8-3.6s2.1-2,3.6-2.8
						c1.5-0.7,3.5-1.1,6-1.1h22.4v5.5h-21.5c-1.5,0-2.7,0.2-3.7,0.5s-1.9,0.8-2.5,1.4c-0.7,0.6-1.1,1.3-1.4,2.2s-0.5,1.8-0.5,2.8
						c0,1.9,0.5,3.7,1.6,5.3c1,1.6,2.5,3,4.3,4.3h23.7L218.6,712.1L218.6,712.1z"/>
				</g>
				<g class="st0">
					<path class="st1" d="M214.9,662.1L214.9,662.1c0.6,0.5,1.1,1.1,1.7,1.8c0.6,0.7,1,1.5,1.5,2.4s0.8,1.9,1,2.9
						c0.3,1.1,0.4,2.2,0.4,3.4c0,1.6-0.2,3.1-0.7,4.5s-1.2,2.5-2.1,3.5s-2.1,1.7-3.4,2.3c-1.3,0.5-2.9,0.8-4.5,0.8
						c-1.7,0-3.2-0.3-4.5-0.9c-1.3-0.6-2.4-1.4-3.3-2.5c-0.9-1.1-1.6-2.4-2.1-3.9s-0.7-3.2-0.7-5c0-1.7,0.2-3.3,0.5-4.8
						s0.6-2.8,1.1-3.9v-0.1h-2.3c-0.9,0-1.7,0.1-2.4,0.2c-0.7,0.1-1.3,0.3-1.9,0.6c-1.1,0.6-2.1,1.6-2.8,2.9
						c-0.7,1.3-1.1,3.1-1.1,5.4c0,1.7,0.2,3.3,0.5,4.8s0.8,3,1.3,4.5h-4.6c-0.3-0.6-0.5-1.2-0.8-2c-0.2-0.8-0.5-1.6-0.6-2.4
						c-0.2-0.8-0.3-1.7-0.4-2.7s-0.1-1.9-0.1-2.8c0-3.4,0.6-6.1,1.8-8.3s2.8-3.7,4.8-4.6c0.8-0.4,1.6-0.6,2.5-0.8s1.9-0.2,3-0.2H219
						v4.6L214.9,662.1z M203.9,662.3c-0.3,1-0.6,2.2-0.8,3.6c-0.3,1.4-0.4,2.9-0.4,4.6c0,2.3,0.5,4.1,1.5,5.4c1,1.3,2.5,2,4.5,2
						c1,0,1.9-0.2,2.7-0.5s1.4-0.8,1.9-1.4c0.5-0.6,0.9-1.3,1.1-2c0.2-0.8,0.4-1.6,0.4-2.5c0-1.2-0.2-2.3-0.5-3.3s-0.7-1.9-1.2-2.7
						s-0.9-1.5-1.4-2s-0.8-1-1.1-1.2L203.9,662.3L203.9,662.3z"/>
				</g>
				<g class="st0">
					<path class="st1" d="M177.4,648h-6.1v-5.5h6.1V648z M218.6,647.9h-33.5v-5.5h33.5V647.9z"/>
				</g>
				<g class="st0">
					<path class="st1" d="M194.1,629.4c0.9,0,1.7-0.2,2.3-0.6c0.6-0.4,1.1-0.9,1.4-1.6c0.4-0.7,0.7-1.4,0.9-2.3
						c0.2-0.9,0.4-1.8,0.6-2.7c0.3-1.3,0.6-2.5,0.9-3.6c0.3-1.1,0.9-2.2,1.5-3.1c0.7-1,1.6-1.7,2.8-2.3s2.7-0.9,4.5-0.9
						c1.7,0,3.2,0.3,4.5,1s2.4,1.6,3.3,2.8s1.5,2.6,2,4.3s0.7,3.5,0.7,5.5c0,1.2-0.1,2.3-0.2,3.3c-0.1,1-0.3,1.9-0.5,2.6
						c-0.2,0.8-0.4,1.4-0.6,2c-0.2,0.5-0.4,1-0.6,1.3H213c0.6-1.4,1-2.8,1.3-4.1c0.3-1.4,0.5-2.9,0.5-4.5c0-1.3-0.1-2.5-0.4-3.5
						c-0.2-1-0.6-1.9-1-2.7s-1-1.3-1.7-1.7s-1.5-0.6-2.4-0.6s-1.7,0.2-2.3,0.6c-0.6,0.4-1.1,0.9-1.5,1.5s-0.7,1.3-1,2.2
						c-0.3,0.8-0.5,1.7-0.7,2.6c-0.3,1.2-0.6,2.4-0.9,3.6s-0.8,2.3-1.5,3.3c-0.6,1-1.5,1.8-2.6,2.4c-1.1,0.6-2.5,0.9-4.2,0.9
						c-1.8,0-3.3-0.3-4.6-1c-1.3-0.6-2.4-1.5-3.2-2.6s-1.5-2.3-1.9-3.8c-0.4-1.4-0.6-2.9-0.6-4.5c0-1.9,0.2-3.6,0.5-5.2
						c0.4-1.6,0.8-3,1.3-4.3h4.7c-0.5,1.4-1,2.8-1.3,4.2s-0.5,2.9-0.5,4.3c0,1.3,0.1,2.3,0.4,3.2c0.3,0.9,0.6,1.6,1.1,2.2
						s1,1,1.6,1.3C192.6,629.3,193.3,629.4,194.1,629.4z"/>
				</g>
				<g class="st0">
					<path class="st1" d="M190.7,585c3.1,0.7,5.7,1.4,8,2l20,5.4v5.5l-33.5,10.9v-5.5l20.9-6.2c2.7-0.8,4.9-1.5,6.6-1.9v-0.1
						c-1.7-0.4-4.1-1-7.3-1.9l-20.1-5.6v-5.5l20.1-6.1c2.7-0.8,5.2-1.5,7.3-2v-0.1c-2.2-0.6-4.4-1.2-6.6-1.9l-20.9-6.2v-5.5
						l33.5,11.2v5.7l-20,5.6C196.3,583.5,193.7,584.2,190.7,585L190.7,585z"/>
				</g>
				<g class="st0">
					<path class="st1" d="M177.4,537.3h-5.9v-5.6h5.9V537.3z M177.4,550.8h-5.9v-5.6h5.9V550.8z M219.5,541.4c0,1.7-0.2,3.3-0.6,4.7
						c-0.4,1.4-0.9,2.6-1.6,3.6c-0.7,1-1.5,1.9-2.4,2.7c-1,0.7-2,1.3-3.1,1.7c-0.8,0.3-1.8,0.6-2.8,0.7c-1,0.1-2.1,0.2-3.3,0.2
						h-20.5v-5.5h20.5c1.9,0,3.4-0.2,4.7-0.7c1.4-0.6,2.5-1.5,3.3-2.7s1.2-2.9,1.2-4.8c0-2.1-0.4-3.7-1.3-5s-2.1-2.2-3.6-2.7
						c-1.2-0.4-2.6-0.6-4.3-0.6h-20.5v-5.5h20.6c1.1,0,2.2,0.1,3.2,0.2c1,0.1,1.9,0.3,2.7,0.6c1.2,0.4,2.2,1,3.2,1.7
						s1.8,1.7,2.5,2.7s1.3,2.3,1.6,3.8C219.3,538,219.5,539.6,219.5,541.4z"/>
				</g>
				<g class="st0">
					<path class="st1" d="M189.6,500.5v0.4c0,1.3,0.1,2.6,0.4,3.8c0.2,1.2,0.6,2.4,1.1,3.5s1.1,2.1,1.8,3s1.5,1.6,2.5,2.2h23.3v5.5
						h-33.5v-4.2l5.3-1.1v-0.1c-0.9-0.5-1.7-1.2-2.4-2s-1.4-1.7-2-2.7s-1-2.1-1.3-3.2c-0.3-1.2-0.5-2.4-0.5-3.7c0-0.2,0-0.5,0-0.7
						s0-0.5,0.1-0.7L189.6,500.5L189.6,500.5z"/>
				</g>
				<g class="st0">
					<path class="st1" d="M171.9,473.7c-0.1,0.7-0.2,1.5-0.3,2.3s-0.1,1.6-0.1,2.2c0,1.2,0.2,2.3,0.5,3.3s0.8,1.8,1.5,2.4
						c0.7,0.7,1.5,1.2,2.6,1.5c1.1,0.4,2.4,0.5,4,0.5h5.1v-10h4.7v10h28.8v5.5h-28.8v5.9h-4.7v-5.9H180c-2.4,0-4.5-0.3-6.1-1
						c-1.7-0.6-3-1.5-4.1-2.7c-1.1-1.1-1.9-2.5-2.4-4s-0.8-3.2-0.8-4.9c0-1.1,0.1-2.2,0.2-3.1c0.1-1,0.2-1.7,0.4-2.1h4.7
						L171.9,473.7L171.9,473.7z"/>
				</g>
				<g class="st0">
					<path class="st1" d="M214.8,455.6c0-1.8-0.1-3.5-0.4-4.9c-0.3-1.5-0.7-3-1.3-4.5h4.5c0.6,1.2,1.1,2.7,1.4,4.4
						c0.3,1.8,0.5,3.7,0.5,5.7c0,2.4-0.3,4.6-0.9,6.7c-0.6,2.1-1.6,3.9-3,5.5c-1.4,1.5-3.1,2.7-5.3,3.6s-4.8,1.3-7.9,1.3
						c-3.1,0-5.7-0.4-7.9-1.3s-4.1-2-5.6-3.4s-2.6-3-3.4-4.8c-0.8-1.8-1.1-3.7-1.1-5.7c0-1.9,0.3-3.6,0.9-5.3c0.6-1.6,1.6-3,2.9-4.2
						s3.1-2.1,5.2-2.8c2.1-0.7,4.7-1,7.6-1c0.3,0,0.5,0,0.7,0s0.7,0,1.4,0V468c2.1,0,4-0.3,5.4-1c1.5-0.6,2.7-1.5,3.6-2.6
						c0.9-1.1,1.6-2.4,2-3.9C214.5,458.9,214.8,457.3,214.8,455.6z M189,458.4c0,1.3,0.2,2.4,0.7,3.5s1.2,2,2,2.8s1.8,1.5,3,2
						c1.1,0.5,2.4,0.8,3.6,0.9v-17.1c-1.3,0-2.5,0.2-3.7,0.5c-1.1,0.3-2.1,0.8-3,1.5s-1.5,1.5-2,2.5C189.2,456,189,457.2,189,458.4z
						"/>
				</g>
				<g class="st0">
					<path class="st1" d="M218.6,437.2h-51v-5.5h51V437.2z"/>
				</g>
			</g>
		</g>
	</g>
</g>
<g class="st0">
	<path class="st1" d="M257.6,733.6L257.6,733.6c-0.8-0.7-1.5-1.4-2.2-2.1c-0.7-0.8-1.2-1.6-1.7-2.5s-0.9-1.9-1.1-3
		c-0.3-1.1-0.4-2.2-0.4-3.4c0-1.3,0.2-2.5,0.5-3.8s0.9-2.4,1.8-3.5c0.9-1.1,2.1-2,3.6-2.6c1.5-0.7,3.5-1,6-1h22.4v5.5H265
		c-2.7,0-4.7,0.5-6.1,1.5s-2,2.7-2,5c0,1.9,0.5,3.8,1.6,5.5c1,1.7,2.5,3.2,4.3,4.5h23.8v5.5h-51v-5.5h22L257.6,733.6L257.6,733.6z"
		/>
</g>
<g class="st0">
	<path class="st1" d="M287.4,689.5c0,1.7-0.2,3.3-0.6,4.7s-0.9,2.6-1.6,3.6s-1.5,1.9-2.4,2.7c-1,0.7-2,1.3-3.1,1.7
		c-0.8,0.3-1.8,0.6-2.8,0.7c-1,0.1-2.1,0.2-3.3,0.2H253v-5.5h20.5c1.9,0,3.4-0.2,4.7-0.7c1.4-0.6,2.5-1.5,3.3-2.7s1.2-2.9,1.2-4.8
		c0-2.1-0.4-3.7-1.3-5s-2.1-2.2-3.6-2.7c-1.2-0.4-2.6-0.6-4.3-0.6H253v-5.5h20.6c1.1,0,2.2,0.1,3.2,0.2c1,0.1,1.9,0.3,2.7,0.6
		c1.2,0.4,2.2,1,3.2,1.7s1.8,1.7,2.5,2.7s1.3,2.3,1.6,3.8C287.2,686.1,287.4,687.7,287.4,689.5z"/>
</g>
<g class="st0">
	<path class="st1" d="M257.7,661.7L257.7,661.7c-0.8-0.7-1.5-1.4-2.2-2.1s-1.3-1.6-1.8-2.5s-0.9-1.9-1.2-3s-0.4-2.3-0.4-3.6
		c0-1.5,0.2-3,0.6-4.3s1.1-2.5,2-3.5s2.2-1.8,3.7-2.3c1.5-0.6,3.4-0.9,5.6-0.9h22.4v5.5H265c-2.9,0-5,0.6-6.2,1.7
		c-1.3,1.1-1.9,2.7-1.9,4.9c0,1.9,0.5,3.7,1.6,5.5c1,1.8,2.5,3.3,4.3,4.5h23.8v5.5H253v-4.2L257.7,661.7z"/>
</g>
<g class="st0">
	<path class="st1" d="M270.2,632.3c-2.3,0-4.4-0.2-6.2-0.7s-3.4-1.1-4.7-1.8c-1.3-0.8-2.5-1.6-3.4-2.6s-1.6-2.1-2.2-3.1
		s-1-2.2-1.2-3.3s-0.4-2.2-0.4-3.2c0-2,0.3-3.8,1-5.3s1.7-2.9,3-4.1v-0.1h-20.7v-5.5h51v4.1l-3.7,1.1v0.1c0.5,0.4,1.1,0.9,1.6,1.5
		c0.6,0.6,1.1,1.2,1.5,2s0.8,1.6,1.1,2.6c0.3,1,0.4,2.2,0.4,3.5c0,1.8-0.3,3.6-0.9,5.4s-1.6,3.3-3,4.7s-3.1,2.5-5.3,3.3
		C275.9,631.9,273.3,632.3,270.2,632.3z M270.1,626.6c1.9,0,3.7-0.2,5.2-0.7c1.6-0.4,2.9-1.1,4-1.9s1.9-1.8,2.5-3s0.9-2.6,0.9-4.1
		c0-1.2-0.2-2.2-0.5-3.1c-0.3-0.9-0.7-1.8-1.2-2.5s-1-1.4-1.5-1.9s-1-0.9-1.5-1.3h-17.5c-1.2,1.1-2.1,2.4-2.8,3.9
		c-0.7,1.5-1,3.1-1,4.8c0,1,0.2,2.1,0.6,3.3c0.4,1.1,1.1,2.2,2.1,3.2s2.4,1.8,4.1,2.4C265.3,626.3,267.4,626.6,270.1,626.6z"/>
</g>
<g>
	<g>
		<g>
			<defs>
				<rect id="SVGID_3_" y="-49.2" width="1280" height="960.2"/>
			</defs>
			<clipPath id="SVGID_4_">
				<use xlink:href="#SVGID_3_"  style="overflow:visible;"/>
			</clipPath>
			<g class="st3">
				<g class="st0">
					<path class="st1" d="M490,712.1v5.5h-21.5c-1.5,0-2.7,0.2-3.7,0.5s-1.9,0.8-2.5,1.4c-0.7,0.6-1.1,1.3-1.4,2.1s-0.5,1.8-0.5,2.8
						c0,2,0.5,3.7,1.6,5.3c1,1.6,2.5,3,4.3,4.3H490v5.5h-33.5v-4.2l4.7-1.1v-0.1c-0.8-0.6-1.5-1.3-2.2-2s-1.3-1.5-1.8-2.4
						s-0.9-1.8-1.2-2.9c-0.3-1.1-0.4-2.2-0.4-3.5c0-2.5,0.6-4.6,1.8-6.2c1.2-1.6,2.8-2.9,4.9-3.8v-0.1c-2.1-1.5-3.7-3.2-4.9-5.1
						c-1.2-1.9-1.8-4.1-1.8-6.7c0-1.2,0.2-2.4,0.5-3.7s0.9-2.5,1.8-3.6s2.1-2,3.6-2.8c1.5-0.7,3.5-1.1,6-1.1H490v5.5h-21.5
						c-1.5,0-2.7,0.2-3.7,0.5s-1.9,0.8-2.5,1.4c-0.7,0.6-1.1,1.3-1.4,2.2s-0.5,1.8-0.5,2.8c0,1.9,0.5,3.7,1.6,5.3
						c1,1.6,2.5,3,4.3,4.3H490V712.1z"/>
				</g>
				<g class="st0">
					<path class="st1" d="M490.9,668.1c0,1.7-0.2,3.3-0.6,4.7s-0.9,2.6-1.6,3.6s-1.5,1.9-2.4,2.7c-1,0.7-2,1.3-3.1,1.7
						c-0.8,0.3-1.8,0.6-2.8,0.7c-1,0.1-2.1,0.2-3.3,0.2h-20.5v-5.5h20.5c1.9,0,3.4-0.2,4.7-0.7c1.4-0.6,2.5-1.5,3.3-2.7
						s1.2-2.9,1.2-4.8c0-2.1-0.4-3.7-1.3-5s-2.1-2.2-3.6-2.7c-1.2-0.4-2.6-0.6-4.3-0.6h-20.5v-5.5h20.6c1.1,0,2.2,0.1,3.2,0.2
						c1,0.1,1.9,0.3,2.7,0.6c1.2,0.4,2.2,1,3.2,1.7s1.8,1.7,2.5,2.7s1.3,2.3,1.6,3.8C490.7,664.7,490.9,666.3,490.9,668.1z"/>
				</g>
				<g class="st0">
					<path class="st1" d="M461.2,640.2L461.2,640.2c-0.8-0.7-1.5-1.4-2.2-2.1s-1.3-1.6-1.8-2.5s-0.9-1.9-1.2-3
						c-0.3-1.1-0.4-2.3-0.4-3.6c0-1.5,0.2-3,0.6-4.3s1.1-2.5,2-3.5s2.2-1.8,3.7-2.3c1.5-0.6,3.4-0.9,5.6-0.9H490v5.5h-21.5
						c-2.9,0-5,0.6-6.2,1.7c-1.3,1.1-1.9,2.7-1.9,4.9c0,1.9,0.5,3.7,1.6,5.5c1,1.8,2.5,3.3,4.3,4.5H490v5.5h-33.5v-4.2L461.2,640.2z
						"/>
				</g>
				<g class="st0">
					<path class="st1" d="M473.7,610.8c-2.3,0-4.4-0.2-6.2-0.7s-3.4-1.1-4.7-1.8c-1.3-0.8-2.5-1.6-3.4-2.6s-1.6-2.1-2.2-3.1
						s-1-2.2-1.2-3.3s-0.4-2.2-0.4-3.2c0-2,0.3-3.8,1-5.3s1.7-2.9,3-4.1v-0.1H439v-5.5h51v4.1l-3.7,1.1v0.1c0.5,0.4,1.1,0.9,1.6,1.5
						c0.6,0.6,1.1,1.2,1.5,2s0.8,1.6,1.1,2.6c0.3,1,0.4,2.2,0.4,3.5c0,1.8-0.3,3.6-0.9,5.4s-1.6,3.3-3,4.7s-3.1,2.5-5.3,3.3
						C479.5,610.4,476.8,610.8,473.7,610.8z M473.6,605.1c1.9,0,3.7-0.2,5.2-0.7c1.6-0.4,2.9-1.1,4-1.9s1.9-1.8,2.5-3
						s0.9-2.6,0.9-4.1c0-1.2-0.2-2.2-0.5-3.1c-0.3-0.9-0.7-1.8-1.2-2.5s-1-1.4-1.5-1.9s-1-0.9-1.5-1.3H464c-1.2,1.1-2.1,2.4-2.8,3.9
						c-0.7,1.5-1,3.1-1,4.8c0,1,0.2,2.1,0.6,3.3c0.4,1.1,1.1,2.2,2.1,3.2s2.4,1.8,4.1,2.4C468.8,604.8,471,605.1,473.6,605.1z"/>
				</g>
				<g class="st0">
					<path class="st1" d="M455.7,558.8c0-1.5,0.2-2.7,0.6-3.8s0.8-2,1.3-2.8s1.1-1.4,1.6-1.8c0.5-0.5,0.9-0.8,1.2-0.9v-0.1l-3.8-1.1
						V544H492c2.6,0,4.8,0.4,6.7,1.3c1.9,0.8,3.5,2,4.8,3.6c1.3,1.5,2.2,3.4,2.8,5.5c0.6,2.1,0.9,4.5,0.9,7.1c0,2.2-0.2,4.2-0.6,5.9
						s-0.9,3.1-1.4,4.1h-4.6c0.3-0.8,0.6-1.6,0.8-2.3c0.2-0.8,0.4-1.5,0.6-2.3s0.3-1.6,0.3-2.4s0.1-1.8,0.1-2.8c0-3.9-0.9-6.9-2.7-9
						c-1.8-2.1-4.6-3.1-8.4-3.1h-4.5v0.1c1.3,1.2,2.3,2.6,3,4.2c0.7,1.6,1,3.4,1,5.4c0,0.9-0.1,2-0.3,3c-0.2,1.1-0.6,2.2-1.1,3.2
						c-0.5,1.1-1.2,2.1-2,3.1s-1.9,1.9-3.1,2.6c-1.3,0.8-2.7,1.4-4.5,1.8c-1.7,0.5-3.7,0.7-6,0.7c-3.1,0-5.8-0.4-8.1-1.3
						s-4.2-2-5.7-3.3c-1.5-1.4-2.6-3-3.4-4.8C456,562.5,455.7,560.7,455.7,558.8z M473.5,568c2.6,0,4.8-0.3,6.4-1
						c1.7-0.6,3-1.4,3.9-2.4s1.6-2,1.9-3.2s0.5-2.2,0.5-3.3c0-1.7-0.3-3.3-1-4.8s-1.6-2.8-2.8-3.9h-17.5c-0.4,0.3-0.9,0.7-1.4,1.3
						c-0.5,0.5-1,1.2-1.5,1.9s-0.8,1.5-1.2,2.4s-0.5,1.9-0.5,3c0,1.6,0.3,3,1,4.3c0.6,1.2,1.5,2.3,2.7,3.1s2.5,1.5,4.1,1.9
						C469.8,567.8,471.6,568,473.5,568z"/>
				</g>
				<g class="st0">
					<path class="st1" d="M486.1,519c0-1.8-0.1-3.5-0.4-4.9c-0.3-1.5-0.7-3-1.3-4.5h4.5c0.6,1.2,1.1,2.7,1.4,4.4
						c0.3,1.8,0.5,3.7,0.5,5.7c0,2.4-0.3,4.6-0.9,6.7c-0.6,2.1-1.6,3.9-3,5.5c-1.4,1.5-3.1,2.7-5.3,3.6c-2.2,0.9-4.8,1.3-7.9,1.3
						s-5.7-0.4-7.9-1.3s-4.1-2-5.6-3.4s-2.6-3-3.4-4.8s-1.1-3.7-1.1-5.7c0-1.9,0.3-3.6,0.9-5.3c0.6-1.6,1.6-3,2.9-4.2
						s3.1-2.1,5.2-2.8c2.1-0.7,4.7-1,7.6-1c0.3,0,0.5,0,0.7,0s0.7,0,1.4,0v23.1c2.1,0,4-0.3,5.4-1c1.5-0.6,2.7-1.5,3.6-2.6
						s1.6-2.4,2-3.9C485.9,522.3,486.1,520.7,486.1,519z M460.4,521.8c0,1.3,0.2,2.4,0.7,3.5s1.2,2,2,2.8s1.8,1.5,3,2
						c1.1,0.5,2.4,0.8,3.6,0.9v-17c-1.3,0-2.5,0.2-3.7,0.5c-1.1,0.3-2.1,0.8-3,1.5s-1.5,1.5-2,2.5
						C460.6,519.4,460.4,520.6,460.4,521.8z"/>
				</g>
				<g class="st0">
					<path class="st1" d="M461,482.4v0.4c0,1.3,0.1,2.6,0.4,3.8c0.2,1.2,0.6,2.4,1.1,3.5s1.1,2.1,1.8,3c0.7,0.9,1.5,1.6,2.5,2.2H490
						v5.5h-33.5v-4.2l5.3-1.1v-0.1c-0.9-0.5-1.7-1.2-2.4-2s-1.4-1.7-2-2.7s-1-2.1-1.3-3.2c-0.3-1.2-0.5-2.4-0.5-3.7
						c0-0.2,0-0.5,0-0.7s0-0.5,0.1-0.7L461,482.4L461,482.4z"/>
				</g>
				<g class="st0">
					<path class="st1" d="M490.9,463.9c0,1.7-0.2,3.3-0.6,4.7c-0.4,1.4-0.9,2.6-1.6,3.6s-1.5,1.9-2.4,2.7c-1,0.7-2,1.3-3.1,1.7
						c-0.8,0.3-1.8,0.6-2.8,0.7s-2.1,0.2-3.3,0.2h-20.5V472h20.5c1.9,0,3.4-0.2,4.7-0.7c1.4-0.6,2.5-1.5,3.3-2.7s1.2-2.9,1.2-4.8
						c0-2.1-0.4-3.7-1.3-5s-2.1-2.2-3.6-2.7c-1.2-0.4-2.6-0.6-4.3-0.6h-20.5V450h20.6c1.1,0,2.2,0.1,3.2,0.2s1.9,0.3,2.7,0.6
						c1.2,0.4,2.2,1,3.2,1.7s1.8,1.7,2.5,2.7s1.3,2.3,1.6,3.8C490.7,460.5,490.9,462.1,490.9,463.9z"/>
				</g>
				<g class="st0">
					<path class="st1" d="M455.7,426.8c0-1.6,0.2-3.2,0.5-4.7s0.8-2.7,1.4-3.8h4.5c-0.6,1.5-1,2.8-1.3,4.1c-0.3,1.2-0.4,2.5-0.4,3.8
						c0,1.4,0.2,2.7,0.7,4.1c0.4,1.3,1.2,2.5,2.2,3.6s2.4,1.9,4.1,2.6c1.7,0.6,3.8,1,6.3,1c1.8,0,3.5-0.2,5-0.7s2.8-1.2,4-2.1
						c1.1-1,2-2.1,2.6-3.6c0.6-1.4,0.9-3.1,0.9-5c0-1.4-0.1-2.7-0.4-4.1s-0.7-2.7-1.3-4.1h4.5c0.2,0.4,0.5,0.9,0.7,1.6
						c0.2,0.6,0.4,1.4,0.6,2.1c0.2,0.8,0.3,1.6,0.4,2.5s0.2,1.7,0.2,2.6c0,2.3-0.3,4.4-1,6.4s-1.7,3.8-3.1,5.3s-3.2,2.7-5.4,3.6
						s-4.7,1.3-7.7,1.3c-2.2,0-4.2-0.2-6-0.7s-3.3-1.1-4.7-1.9c-1.3-0.8-2.5-1.7-3.4-2.8c-0.9-1.1-1.7-2.2-2.3-3.4s-1-2.5-1.3-3.8
						C455.8,429.2,455.7,428,455.7,426.8z"/>
				</g>
				<g class="st0">
					<path class="st1" d="M461.1,406v-0.1c-0.8-0.6-1.5-1.3-2.2-2c-0.7-0.8-1.2-1.6-1.7-2.5s-0.9-1.9-1.1-3
						c-0.3-1.1-0.4-2.2-0.4-3.4c0-1.3,0.2-2.5,0.5-3.8s0.9-2.4,1.8-3.5s2.1-2,3.6-2.6c1.5-0.7,3.5-1,6-1H490v5.5h-21.5
						c-2.7,0-4.7,0.5-6.1,1.5s-2,2.7-2,5c0,1.9,0.5,3.8,1.6,5.5c1,1.7,2.5,3.2,4.3,4.5H490v5.5h-51V406H461.1z"/>
				</g>
			</g>
		</g>
	</g>
</g>
<g>
	<g>
		<g>
			<defs>
				<rect id="SVGID_5_" y="-49.2" width="1280" height="960.2"/>
			</defs>
			<clipPath id="SVGID_6_">
				<use xlink:href="#SVGID_5_"  style="overflow:visible;"/>
			</clipPath>
			<g class="st4">
				<g class="st0">
					<path class="st1" d="M609.4,741.4c-2.3,0-4.4-0.2-6.2-0.7s-3.4-1.1-4.7-1.8c-1.3-0.8-2.5-1.6-3.4-2.6s-1.6-2.1-2.2-3.1
						s-1-2.2-1.2-3.3s-0.4-2.2-0.4-3.2c0-2,0.3-3.8,1-5.3s1.7-2.9,3-4.1v-0.1h-20.7v-5.5h51v4.1L622,717v0.1
						c0.5,0.4,1.1,0.9,1.6,1.5c0.6,0.6,1.1,1.2,1.5,2s0.8,1.6,1.1,2.6s0.4,2.2,0.4,3.5c0,1.8-0.3,3.6-0.9,5.4s-1.6,3.3-3,4.7
						s-3.1,2.5-5.3,3.3C615.2,741,612.6,741.4,609.4,741.4z M609.4,735.7c1.9,0,3.7-0.2,5.2-0.7c1.6-0.4,2.9-1.1,4-1.9
						s1.9-1.8,2.5-3s0.9-2.6,0.9-4.1c0-1.2-0.2-2.2-0.5-3.1c-0.3-0.9-0.7-1.8-1.2-2.5s-1-1.4-1.5-1.9s-1-0.9-1.5-1.3h-17.5
						c-1.2,1.1-2.1,2.4-2.8,3.9s-1,3.1-1,4.8c0,1,0.2,2.1,0.6,3.3c0.4,1.1,1.1,2.2,2.1,3.2s2.4,1.8,4.1,2.4
						C604.5,735.4,606.7,735.7,609.4,735.7z"/>
				</g>
				<g class="st0">
					<path class="st1" d="M621.9,686.5c0-1.8-0.1-3.5-0.4-4.9c-0.3-1.5-0.7-3-1.3-4.5h4.5c0.6,1.2,1.1,2.7,1.4,4.4
						c0.3,1.8,0.5,3.7,0.5,5.7c0,2.4-0.3,4.6-0.9,6.7c-0.6,2.1-1.6,3.9-3,5.5c-1.4,1.5-3.1,2.7-5.3,3.6c-2.2,0.9-4.8,1.3-7.9,1.3
						c-3.1,0-5.7-0.4-7.9-1.3s-4.1-2-5.6-3.4s-2.6-3-3.4-4.8c-0.8-1.8-1.1-3.7-1.1-5.7c0-1.9,0.3-3.6,0.9-5.3c0.6-1.6,1.6-3,2.9-4.2
						s3.1-2.1,5.2-2.8c2.1-0.7,4.7-1,7.6-1c0.3,0,0.5,0,0.7,0s0.7,0,1.4,0v23.1c2.1,0,4-0.3,5.4-1c1.5-0.6,2.7-1.5,3.6-2.6
						c0.9-1.1,1.6-2.4,2-3.9C621.7,689.8,621.9,688.2,621.9,686.5z M596.1,689.3c0,1.3,0.2,2.4,0.7,3.5s1.2,2,2,2.8s1.8,1.5,3,2
						c1.1,0.5,2.4,0.8,3.6,0.9v-17.1c-1.3,0-2.5,0.2-3.7,0.5c-1.1,0.3-2.1,0.8-3,1.5s-1.5,1.5-2,2.5
						C596.3,686.9,596.1,688.1,596.1,689.3z"/>
				</g>
				<g class="st0">
					<path class="st1" d="M609.1,638.1c2.6,0,5,0.4,7.2,1.1s4,1.8,5.5,3.2s2.7,3,3.6,5c0.8,2,1.3,4.1,1.3,6.6s-0.4,4.7-1.3,6.7
						s-2,3.6-3.6,5c-1.5,1.4-3.4,2.4-5.5,3.2c-2.2,0.7-4.6,1.1-7.2,1.1c-2.7,0-5.1-0.4-7.2-1.1s-4-1.8-5.6-3.2c-1.5-1.4-2.7-3-3.6-5
						s-1.3-4.2-1.3-6.6c0-2.5,0.4-4.7,1.3-6.7s2-3.6,3.6-5s3.4-2.4,5.6-3.1S606.4,638.1,609.1,638.1z M609.1,643.8
						c-2.1,0-3.9,0.3-5.5,0.8s-3,1.2-4.1,2.1c-1.1,0.9-2,2-2.5,3.2c-0.6,1.2-0.9,2.6-0.9,4.1s0.3,2.8,0.9,4.1
						c0.6,1.2,1.4,2.3,2.5,3.2s2.5,1.6,4.1,2.1s3.4,0.8,5.5,0.8c2,0,3.9-0.3,5.5-0.8s3-1.2,4.1-2.1c1.1-0.9,1.9-2,2.5-3.2
						s0.9-2.6,0.9-4.1s-0.3-2.8-0.9-4.1c-0.6-1.2-1.4-2.3-2.5-3.2s-2.5-1.6-4.1-2.1C612.9,644.1,611.1,643.8,609.1,643.8z"/>
				</g>
				<g class="st0">
					<path class="st1" d="M609.4,632.6c-2.3,0-4.4-0.2-6.2-0.7s-3.4-1.1-4.7-1.8c-1.3-0.8-2.5-1.6-3.4-2.6s-1.6-2.1-2.2-3.1
						s-1-2.2-1.2-3.3s-0.4-2.2-0.4-3.2c0-2,0.3-3.8,1-5.3s1.7-2.9,3-4.1v-0.1h-20.7v-5.5h51v4.1l-3.7,1.1v0.1
						c0.5,0.4,1.1,0.9,1.6,1.5c0.6,0.6,1.1,1.2,1.5,2s0.8,1.6,1.1,2.6s0.4,2.2,0.4,3.5c0,1.8-0.3,3.6-0.9,5.4s-1.6,3.3-3,4.7
						s-3.1,2.5-5.3,3.3C615.2,632.2,612.6,632.6,609.4,632.6z M609.4,626.9c1.9,0,3.7-0.2,5.2-0.7c1.6-0.4,2.9-1.1,4-1.9
						s1.9-1.8,2.5-3s0.9-2.6,0.9-4.1c0-1.2-0.2-2.2-0.5-3.1c-0.3-0.9-0.7-1.8-1.2-2.5s-1-1.4-1.5-1.9s-1-0.9-1.5-1.3h-17.5
						c-1.2,1.1-2.1,2.4-2.8,3.9s-1,3.1-1,4.8c0,1,0.2,2.1,0.6,3.3c0.4,1.1,1.1,2.2,2.1,3.2s2.4,1.8,4.1,2.4
						C604.5,626.6,606.7,626.9,609.4,626.9z"/>
				</g>
				<g class="st0">
					<path class="st1" d="M609.1,563.8c2.6,0,5,0.4,7.2,1.1s4,1.8,5.5,3.2s2.7,3,3.6,5c0.8,2,1.3,4.1,1.3,6.6s-0.4,4.7-1.3,6.7
						s-2,3.6-3.6,5c-1.5,1.4-3.4,2.4-5.5,3.2c-2.2,0.7-4.6,1.1-7.2,1.1c-2.7,0-5.1-0.4-7.2-1.1s-4-1.8-5.6-3.2c-1.5-1.4-2.7-3-3.6-5
						s-1.3-4.2-1.3-6.6c0-2.5,0.4-4.7,1.3-6.7s2-3.6,3.6-5s3.4-2.4,5.6-3.1S606.4,563.8,609.1,563.8z M609.1,569.5
						c-2.1,0-3.9,0.3-5.5,0.8s-3,1.2-4.1,2.1c-1.1,0.9-2,2-2.5,3.2c-0.6,1.2-0.9,2.6-0.9,4.1s0.3,2.8,0.9,4.1
						c0.6,1.2,1.4,2.3,2.5,3.2s2.5,1.6,4.1,2.1s3.4,0.8,5.5,0.8c2,0,3.9-0.3,5.5-0.8s3-1.2,4.1-2.1c1.1-0.9,1.9-2,2.5-3.2
						s0.9-2.6,0.9-4.1s-0.3-2.8-0.9-4.1c-0.6-1.2-1.4-2.3-2.5-3.2s-2.5-1.6-4.1-2.1C612.9,569.8,611.1,569.5,609.1,569.5z"/>
				</g>
				<g class="st0">
					<path class="st1" d="M596.7,538.2v0.4c0,1.3,0.1,2.6,0.4,3.8c0.2,1.2,0.6,2.4,1.1,3.5s1.1,2.1,1.8,3s1.5,1.6,2.5,2.2h23.3v5.5
						h-33.5v-4.2l5.3-1.1v-0.1c-0.9-0.5-1.7-1.2-2.4-2s-1.4-1.7-2-2.7s-1-2.1-1.3-3.2c-0.3-1.2-0.5-2.4-0.5-3.7c0-0.2,0-0.5,0-0.7
						s0-0.5,0.1-0.7H596.7z"/>
				</g>
				<g class="st0">
					<path class="st1" d="M622.1,514.2L622.1,514.2c0.6,0.5,1.1,1.1,1.7,1.8c0.6,0.7,1,1.5,1.5,2.4s0.8,1.9,1,2.9
						c0.3,1.1,0.4,2.2,0.4,3.4c0,1.6-0.2,3.1-0.7,4.5s-1.2,2.5-2.1,3.5s-2.1,1.7-3.4,2.3c-1.3,0.5-2.9,0.8-4.5,0.8
						c-1.7,0-3.2-0.3-4.5-0.9c-1.3-0.6-2.4-1.4-3.3-2.5c-0.9-1.1-1.6-2.4-2.1-3.9s-0.7-3.2-0.7-5c0-1.7,0.2-3.3,0.5-4.8
						s0.6-2.8,1.1-3.9v-0.1h-2.3c-0.9,0-1.7,0.1-2.4,0.2c-0.7,0.1-1.3,0.3-1.9,0.6c-1.1,0.6-2.1,1.6-2.8,2.9
						c-0.7,1.3-1.1,3.1-1.1,5.4c0,1.7,0.2,3.3,0.5,4.8s0.8,3,1.3,4.5h-4.6c-0.3-0.6-0.5-1.2-0.8-2c-0.2-0.8-0.5-1.6-0.6-2.4
						c-0.2-0.8-0.3-1.7-0.4-2.7s-0.1-1.9-0.1-2.8c0-3.4,0.6-6.1,1.8-8.3s2.8-3.7,4.8-4.6c0.8-0.4,1.6-0.6,2.5-0.8
						c0.9-0.2,1.9-0.2,3-0.2h22.3v4.6L622.1,514.2z M611.1,514.4c-0.3,1-0.6,2.2-0.8,3.6c-0.3,1.4-0.4,2.9-0.4,4.6
						c0,2.3,0.5,4.1,1.5,5.4c1,1.3,2.5,2,4.5,2c1,0,1.9-0.2,2.7-0.5s1.4-0.8,1.9-1.4c0.5-0.6,0.9-1.3,1.1-2c0.2-0.8,0.4-1.6,0.4-2.5
						c0-1.2-0.2-2.3-0.5-3.3s-0.7-1.9-1.2-2.7s-0.9-1.5-1.4-2s-0.8-1-1.1-1.2L611.1,514.4L611.1,514.4z"/>
				</g>
				<g class="st0">
					<path class="st1" d="M596.9,494.9v-0.1c-0.8-0.6-1.5-1.3-2.2-2s-1.3-1.6-1.8-2.5s-0.9-1.9-1.2-3s-0.4-2.3-0.4-3.6
						c0-1.5,0.2-3,0.6-4.3s1.1-2.5,2-3.5s2.2-1.8,3.7-2.3c1.5-0.6,3.4-0.9,5.6-0.9h22.4v5.5h-21.5c-2.9,0-5,0.6-6.2,1.7
						c-1.3,1.1-1.9,2.7-1.9,4.9c0,1.9,0.5,3.7,1.6,5.5c1,1.8,2.5,3.3,4.3,4.5h23.8v5.5h-33.5v-4.2L596.9,494.9z"/>
				</g>
				<g class="st0">
					<path class="st1" d="M625.8,445.6c0.2,0.5,0.4,1.2,0.5,2.1s0.3,2.1,0.3,3.5c0,1.8-0.2,3.3-0.7,4.6c-0.4,1.3-1.1,2.4-1.9,3.2
						c-0.8,0.9-1.8,1.5-2.9,1.9c-1.2,0.4-2.4,0.6-3.8,0.6H597v6.4h-4.7v-6.4h-9.2V456h9.2v-10h4.7v10h19.5c0.8,0,1.5-0.1,2.1-0.3
						c0.7-0.2,1.2-0.6,1.7-1.1s0.9-1.1,1.1-1.8c0.3-0.8,0.4-1.7,0.4-2.7c0-0.7-0.1-1.5-0.2-2.3c-0.1-0.8-0.3-1.6-0.5-2.2H625.8
						L625.8,445.6z"/>
				</g>
			</g>
		</g>
	</g>
</g>
<path class="st1" d="M777.4,657.8c0-0.8,0-1.6,0.1-2.4c0.1-0.8,0.2-1.5,0.3-2h4.6c-0.1,0.8-0.2,1.4-0.2,2s-0.1,1.2-0.1,1.6
	c0,1.2,0.2,2.3,0.5,3.2c0.3,1,0.8,1.8,1.5,2.4c0.7,0.6,1.6,1.1,2.6,1.5c1.1,0.3,2.4,0.5,4,0.5h5.1v-15.2h-5.2c-2.3,0-4.3-0.3-6-1
	c-1.7-0.6-3-1.5-4.1-2.7c-1.1-1.1-1.9-2.5-2.4-4s-0.8-3.2-0.8-4.9c0-1.1,0.1-2.2,0.2-3.1c0.1-1,0.2-1.6,0.4-2.1h4.6
	c-0.1,0.7-0.2,1.5-0.3,2.3s-0.1,1.6-0.1,2.2c0,1.2,0.2,2.3,0.5,3.3s0.8,1.8,1.5,2.4c0.7,0.7,1.6,1.2,2.6,1.5c1.1,0.4,2.4,0.5,4,0.5
	h5.1v-10h4.7v10h28.8v5.5h-28.8v15.2h28.8v5.5h-28.8v5.9h-4.7V670h-5.2c-2.3,0-4.3-0.3-6-1c-1.7-0.6-3-1.5-4.1-2.6s-1.9-2.4-2.4-3.9
	C777.6,661.1,777.4,659.5,777.4,657.8z M795.8,717.8v-7.1l15.4,16.3l18.1-16.3v6.8l-17.8,16.1v0.1h17.8v5.5h-51v-5.5h32.5v-0.1
	L795.8,717.8z M825.4,578.8c0-1.8-0.1-3.5-0.4-5c-0.3-1.5-0.7-3-1.3-4.5h4.5c0.6,1.2,1.1,2.7,1.4,4.4c0.3,1.8,0.5,3.7,0.5,5.7
	c0,2.4-0.3,4.6-0.9,6.7c-0.6,2.1-1.6,3.9-3,5.5c-1.4,1.5-3.1,2.7-5.3,3.6c-2.2,0.9-4.8,1.3-7.9,1.3c-3.1,0-5.7-0.4-7.9-1.3
	c-2.2-0.8-4.1-2-5.6-3.4s-2.6-3-3.4-4.9c-0.8-1.8-1.1-3.7-1.1-5.7c0-1.9,0.3-3.6,0.9-5.3c0.6-1.6,1.6-3,2.9-4.2
	c1.3-1.2,3.1-2.1,5.2-2.8c2.1-0.7,4.7-1,7.6-1c0.3,0,0.5,0,0.7,0s0.7,0,1.4,0V591c2.1,0,4-0.3,5.4-1c1.5-0.6,2.7-1.5,3.6-2.6
	c0.9-1.1,1.6-2.4,2-3.9C825.2,582.2,825.4,580.5,825.4,578.8z M825.4,613.1c0-1.8-0.1-3.5-0.4-5c-0.3-1.5-0.7-3-1.3-4.5h4.5
	c0.6,1.2,1.1,2.7,1.4,4.4c0.3,1.8,0.5,3.7,0.5,5.7c0,2.4-0.3,4.6-0.9,6.7c-0.6,2.1-1.6,3.9-3,5.5c-1.4,1.5-3.1,2.7-5.3,3.6
	c-2.2,0.9-4.8,1.3-7.9,1.3c-3.1,0-5.7-0.4-7.9-1.3c-2.2-0.8-4.1-2-5.6-3.4s-2.6-3-3.4-4.9c-0.8-1.8-1.1-3.7-1.1-5.7
	c0-1.9,0.3-3.6,0.9-5.3c0.6-1.6,1.6-3,2.9-4.2c1.3-1.2,3.1-2.1,5.2-2.8c2.1-0.7,4.7-1,7.6-1c0.3,0,0.5,0,0.7,0s0.7,0,1.4,0v23.1
	c2.1,0,4-0.3,5.4-1c1.5-0.6,2.7-1.5,3.6-2.6c0.9-1.1,1.6-2.4,2-3.9C825.2,616.4,825.4,614.8,825.4,613.1z M825.6,686.4L825.6,686.4
	c0.6,0.5,1.1,1.1,1.7,1.8c0.6,0.7,1,1.5,1.5,2.4c0.4,0.9,0.8,1.9,1,2.9c0.3,1.1,0.4,2.2,0.4,3.4c0,1.6-0.2,3.1-0.7,4.5
	s-1.2,2.5-2.1,3.5c-0.9,1-2.1,1.7-3.4,2.3c-1.3,0.5-2.9,0.8-4.5,0.8c-1.7,0-3.2-0.3-4.5-0.9c-1.3-0.6-2.4-1.4-3.3-2.5
	c-0.9-1.1-1.6-2.4-2.1-3.9s-0.7-3.2-0.7-5c0-1.7,0.2-3.3,0.5-4.8s0.6-2.8,1.1-3.9v-0.1h-2.3c-0.9,0-1.7,0.1-2.4,0.2
	c-0.7,0.1-1.3,0.3-1.9,0.6c-1.1,0.6-2.1,1.6-2.8,2.9c-0.7,1.3-1.1,3.1-1.1,5.4c0,1.7,0.2,3.3,0.5,4.8s0.8,3,1.3,4.5h-4.6
	c-0.3-0.6-0.5-1.2-0.8-2c-0.2-0.8-0.5-1.6-0.6-2.4c-0.2-0.8-0.3-1.7-0.4-2.7c-0.1-0.9-0.1-1.9-0.1-2.8c0-3.4,0.6-6.1,1.8-8.3
	c1.2-2.1,2.8-3.7,4.8-4.6c0.8-0.4,1.6-0.6,2.5-0.8s1.9-0.2,3-0.2h22.3v4.6L825.6,686.4z M799.6,581.7c0,1.3,0.2,2.4,0.7,3.5
	s1.2,2,2,2.8s1.8,1.5,3,2c1.1,0.5,2.4,0.8,3.6,0.9v-17.1c-1.3,0-2.5,0.2-3.7,0.5c-1.1,0.3-2.1,0.9-3,1.5c-0.8,0.7-1.5,1.5-2,2.5
	C799.8,579.3,799.6,580.4,799.6,581.7z M799.6,616c0,1.3,0.2,2.4,0.7,3.5s1.2,2,2,2.8s1.8,1.5,3,2c1.1,0.5,2.4,0.8,3.6,0.9v-17.1
	c-1.3,0-2.5,0.2-3.7,0.5c-1.1,0.3-2.1,0.9-3,1.5c-0.8,0.7-1.5,1.5-2,2.5C799.8,613.5,799.6,614.7,799.6,616z M814.6,686.7
	c-0.3,1-0.6,2.2-0.8,3.6c-0.3,1.4-0.4,2.9-0.4,4.6c0,2.3,0.5,4.1,1.5,5.4c1,1.3,2.5,2,4.5,2c1,0,1.9-0.2,2.7-0.5s1.4-0.8,1.9-1.4
	c0.5-0.6,0.9-1.3,1.1-2c0.2-0.8,0.4-1.6,0.4-2.5c0-1.2-0.2-2.3-0.5-3.3s-0.7-1.9-1.2-2.7s-0.9-1.5-1.4-2s-0.8-1-1.1-1.2L814.6,686.7
	L814.6,686.7z"/>
<g>
	<g>
		<g>
			<defs>
				<rect id="SVGID_7_" y="-49.2" width="1280" height="960.2"/>
			</defs>
			<clipPath id="SVGID_8_">
				<use xlink:href="#SVGID_7_"  style="overflow:visible;"/>
			</clipPath>
			<g class="st5">
				<g class="st0">
					<path class="st1" d="M669,735.5c0.9,0,1.7-0.2,2.3-0.6c0.6-0.4,1.1-0.9,1.4-1.6c0.4-0.7,0.7-1.4,0.9-2.3
						c0.2-0.9,0.4-1.8,0.6-2.7c0.3-1.3,0.6-2.5,0.9-3.6c0.3-1.1,0.9-2.2,1.5-3.1c0.7-1,1.6-1.7,2.8-2.3s2.7-0.9,4.5-0.9
						c1.7,0,3.2,0.3,4.5,1s2.4,1.6,3.3,2.8s1.5,2.6,2,4.3s0.7,3.5,0.7,5.5c0,1.2-0.1,2.3-0.2,3.3c-0.1,1-0.3,1.9-0.5,2.6
						c-0.2,0.8-0.4,1.4-0.6,2c-0.2,0.5-0.4,1-0.6,1.3H688c0.6-1.4,1-2.8,1.3-4.1c0.3-1.4,0.5-2.9,0.5-4.5c0-1.3-0.1-2.5-0.4-3.5
						c-0.2-1-0.6-1.9-1-2.7s-1-1.3-1.7-1.7s-1.5-0.6-2.4-0.6s-1.7,0.2-2.3,0.6c-0.6,0.4-1.1,0.9-1.5,1.5s-0.7,1.3-1,2.2
						c-0.3,0.8-0.5,1.7-0.7,2.6c-0.3,1.2-0.6,2.4-0.9,3.6s-0.8,2.3-1.5,3.3c-0.6,1-1.5,1.8-2.6,2.4c-1.1,0.6-2.5,0.9-4.2,0.9
						c-1.8,0-3.3-0.3-4.6-1c-1.3-0.6-2.4-1.5-3.2-2.6s-1.5-2.3-1.9-3.8c-0.4-1.4-0.6-2.9-0.6-4.5c0-1.9,0.2-3.6,0.5-5.2
						c0.4-1.6,0.8-3,1.3-4.3h4.7c-0.5,1.4-1,2.8-1.3,4.2s-0.5,2.9-0.5,4.3c0,1.3,0.1,2.3,0.4,3.2c0.3,0.9,0.6,1.6,1.1,2.2
						s1,1,1.6,1.3C667.6,735.4,668.3,735.5,669,735.5z"/>
				</g>
				<g class="st0">
					<path class="st1" d="M659.2,697.2c0-1.6,0.2-3.2,0.5-4.7s0.8-2.7,1.4-3.8h4.5c-0.6,1.5-1,2.8-1.3,4.1c-0.3,1.2-0.4,2.5-0.4,3.8
						c0,1.4,0.2,2.7,0.7,4.1c0.4,1.3,1.2,2.5,2.2,3.6s2.4,1.9,4.1,2.6c1.7,0.6,3.8,1,6.3,1c1.8,0,3.5-0.2,5-0.7s2.8-1.2,4-2.1
						c1.1-1,2-2.1,2.6-3.6c0.6-1.4,0.9-3.1,0.9-5c0-1.4-0.1-2.7-0.4-4.1c-0.3-1.4-0.7-2.7-1.3-4.1h4.5c0.2,0.4,0.5,0.9,0.7,1.6
						c0.2,0.6,0.4,1.4,0.6,2.1c0.2,0.8,0.3,1.6,0.4,2.5c0.1,0.9,0.2,1.7,0.2,2.6c0,2.3-0.3,4.4-1,6.4s-1.7,3.8-3.1,5.3
						c-1.4,1.5-3.2,2.7-5.4,3.6s-4.7,1.3-7.7,1.3c-2.2,0-4.2-0.2-6-0.7s-3.3-1.1-4.7-1.9c-1.3-0.8-2.5-1.7-3.4-2.8s-1.7-2.2-2.3-3.4
						s-1-2.5-1.3-3.8C659.4,699.6,659.2,698.4,659.2,697.2z"/>
				</g>
				<g class="st0">
					<path class="st1" d="M664.7,676.3L664.7,676.3c-0.8-0.7-1.5-1.4-2.2-2.1c-0.7-0.8-1.2-1.6-1.7-2.5s-0.9-1.9-1.1-3
						c-0.3-1.1-0.4-2.2-0.4-3.4c0-1.3,0.2-2.5,0.5-3.8s0.9-2.4,1.8-3.5c0.9-1.1,2.1-2,3.6-2.6c1.5-0.7,3.5-1,6-1h22.4v5.5H672
						c-2.7,0-4.7,0.5-6.1,1.5c-1.4,1-2,2.7-2,5c0,1.9,0.5,3.8,1.6,5.5c1,1.7,2.5,3.2,4.3,4.5h23.8v5.5h-51v-5.5h22.1L664.7,676.3
						L664.7,676.3z"/>
				</g>
				<g class="st0">
					<path class="st1" d="M665.6,626.2c3.1,0.7,5.7,1.4,8,2l20,5.4v5.5L660.1,650v-5.5l20.9-6.2c2.7-0.8,4.9-1.5,6.6-1.9v-0.1
						c-1.7-0.4-4.1-1-7.3-1.9l-20.1-5.6v-5.5l20.1-6.1c2.7-0.8,5.2-1.5,7.3-2v-0.1c-2.2-0.6-4.4-1.2-6.6-1.9l-20.9-6.2v-5.5
						l33.5,11.2v5.7l-20,5.6c-2.4,0.7-5,1.4-8,2.1V626.2z"/>
				</g>
				<g class="st0">
					<path class="st1" d="M689.7,581.2c0-1.8-0.1-3.5-0.4-4.9c-0.3-1.5-0.7-3-1.3-4.5h4.5c0.6,1.2,1.1,2.7,1.4,4.4
						c0.3,1.8,0.5,3.7,0.5,5.7c0,2.4-0.3,4.6-0.9,6.7c-0.6,2.1-1.6,3.9-3,5.5c-1.4,1.5-3.1,2.7-5.3,3.6c-2.2,0.9-4.8,1.3-7.9,1.3
						c-3.1,0-5.7-0.4-7.9-1.3s-4.1-2-5.6-3.4s-2.6-3-3.4-4.8c-0.8-1.8-1.1-3.7-1.1-5.7c0-1.9,0.3-3.6,0.9-5.3c0.6-1.6,1.6-3,2.9-4.2
						s3.1-2.1,5.2-2.8c2.1-0.7,4.7-1,7.6-1c0.3,0,0.5,0,0.7,0s0.7,0,1.4,0v23.1c2.1,0,4-0.3,5.4-1c1.5-0.6,2.7-1.5,3.6-2.6
						c0.9-1.1,1.6-2.4,2-3.9C689.5,584.5,689.7,582.9,689.7,581.2z M663.9,584c0,1.3,0.2,2.4,0.7,3.5s1.2,2,2,2.8s1.8,1.5,3,2
						c1.1,0.5,2.4,0.8,3.6,0.9v-17.1c-1.3,0-2.5,0.2-3.7,0.5c-1.1,0.3-2.1,0.8-3,1.5s-1.5,1.5-2,2.5
						C664.1,581.6,663.9,582.8,663.9,584z"/>
				</g>
				<g class="st0">
					<path class="st1" d="M652.3,563h-6.1v-5.5h6.1V563z M693.6,562.9h-33.5v-5.5h33.5V562.9z"/>
				</g>
				<g class="st0">
					<path class="st1" d="M669,544.3c0.9,0,1.7-0.2,2.3-0.6c0.6-0.4,1.1-0.9,1.4-1.6c0.4-0.7,0.7-1.4,0.9-2.3
						c0.2-0.9,0.4-1.8,0.6-2.7c0.3-1.3,0.6-2.5,0.9-3.6c0.3-1.1,0.9-2.2,1.5-3.1c0.7-1,1.6-1.7,2.8-2.3s2.7-0.9,4.5-0.9
						c1.7,0,3.2,0.3,4.5,1s2.4,1.6,3.3,2.8s1.5,2.6,2,4.3s0.7,3.5,0.7,5.5c0,1.2-0.1,2.3-0.2,3.3c-0.1,1-0.3,1.9-0.5,2.6
						c-0.2,0.8-0.4,1.4-0.6,2c-0.2,0.5-0.4,1-0.6,1.3H688c0.6-1.4,1-2.8,1.3-4.1c0.3-1.4,0.5-2.9,0.5-4.5c0-1.3-0.1-2.5-0.4-3.5
						c-0.2-1-0.6-1.9-1-2.7s-1-1.3-1.7-1.7s-1.5-0.6-2.4-0.6s-1.7,0.2-2.3,0.6c-0.6,0.4-1.1,0.9-1.5,1.5s-0.7,1.3-1,2.2
						c-0.3,0.8-0.5,1.7-0.7,2.6c-0.3,1.2-0.6,2.4-0.9,3.6s-0.8,2.3-1.5,3.3c-0.6,1-1.5,1.8-2.6,2.4c-1.1,0.6-2.5,0.9-4.2,0.9
						c-1.8,0-3.3-0.3-4.6-1c-1.3-0.6-2.4-1.5-3.2-2.6s-1.5-2.3-1.9-3.8c-0.4-1.4-0.6-2.9-0.6-4.5c0-1.9,0.2-3.6,0.5-5.2
						c0.4-1.6,0.8-3,1.3-4.3h4.7c-0.5,1.4-1,2.8-1.3,4.2s-0.5,2.9-0.5,4.3c0,1.3,0.1,2.3,0.4,3.2c0.3,0.9,0.6,1.6,1.1,2.2
						s1,1,1.6,1.3C667.6,544.2,668.3,544.3,669,544.3z"/>
				</g>
				<g class="st0">
					<path class="st1" d="M669,516.5c0.9,0,1.7-0.2,2.3-0.6c0.6-0.4,1.1-0.9,1.4-1.6c0.4-0.7,0.7-1.4,0.9-2.3
						c0.2-0.9,0.4-1.8,0.6-2.7c0.3-1.3,0.6-2.5,0.9-3.6c0.3-1.1,0.9-2.2,1.5-3.1c0.7-1,1.6-1.7,2.8-2.3c1.2-0.6,2.7-0.9,4.5-0.9
						c1.7,0,3.2,0.3,4.5,1s2.4,1.6,3.3,2.8s1.5,2.6,2,4.3s0.7,3.5,0.7,5.5c0,1.2-0.1,2.3-0.2,3.3c-0.1,1-0.3,1.9-0.5,2.6
						c-0.2,0.8-0.4,1.4-0.6,2c-0.2,0.5-0.4,1-0.6,1.3H688c0.6-1.4,1-2.8,1.3-4.1c0.3-1.4,0.5-2.9,0.5-4.5c0-1.3-0.1-2.5-0.4-3.5
						c-0.2-1-0.6-1.9-1-2.7s-1-1.3-1.7-1.7c-0.7-0.4-1.5-0.6-2.4-0.6s-1.7,0.2-2.3,0.6s-1.1,0.9-1.5,1.5s-0.7,1.3-1,2.2
						c-0.3,0.8-0.5,1.7-0.7,2.6c-0.3,1.2-0.6,2.4-0.9,3.6s-0.8,2.3-1.5,3.3c-0.6,1-1.5,1.8-2.6,2.4c-1.1,0.6-2.5,0.9-4.2,0.9
						c-1.8,0-3.3-0.3-4.6-1c-1.3-0.6-2.4-1.5-3.2-2.6s-1.5-2.3-1.9-3.8c-0.4-1.4-0.6-2.9-0.6-4.5c0-1.9,0.2-3.6,0.5-5.2
						c0.4-1.6,0.8-3,1.3-4.3h4.7c-0.5,1.4-1,2.8-1.3,4.2c-0.3,1.4-0.5,2.9-0.5,4.3c0,1.3,0.1,2.3,0.4,3.2c0.3,0.9,0.6,1.6,1.1,2.2
						s1,1,1.6,1.3C667.6,516.4,668.3,516.5,669,516.5z"/>
				</g>
			</g>
		</g>
	</g>
</g>
<g class="st0">
	<path class="st1" d="M325.7,723.3h-0.1v18.4h-4.7v-25.3h3.5l25.2,18.6h0.1v-19.8h4.7v27.1h-3L325.7,723.3z"/>
</g>
<g class="st0">
	<path class="st1" d="M350.5,693.7c0-1.8-0.1-3.5-0.4-4.9c-0.3-1.5-0.7-3-1.3-4.5h4.5c0.6,1.2,1.1,2.7,1.4,4.4
		c0.3,1.8,0.5,3.7,0.5,5.7c0,2.4-0.3,4.6-0.9,6.7c-0.6,2.1-1.6,3.9-3,5.5c-1.4,1.5-3.1,2.7-5.3,3.6c-2.2,0.9-4.8,1.3-7.9,1.3
		s-5.7-0.4-7.9-1.3s-4.1-2-5.6-3.4s-2.6-3-3.4-4.8s-1.1-3.7-1.1-5.7c0-1.9,0.3-3.6,0.9-5.3c0.6-1.6,1.6-3,2.9-4.2s3.1-2.1,5.2-2.8
		s4.7-1,7.6-1c0.3,0,0.5,0,0.7,0s0.7,0,1.4,0v23.1c2.1,0,4-0.3,5.4-1c1.5-0.6,2.7-1.5,3.6-2.6s1.6-2.4,2-3.9
		C350.2,697,350.5,695.4,350.5,693.7z M324.7,696.5c0,1.3,0.2,2.4,0.7,3.5s1.2,2,2,2.8s1.8,1.5,3,2c1.1,0.5,2.4,0.8,3.6,0.9v-17.1
		c-1.3,0-2.5,0.2-3.7,0.5c-1.1,0.3-2.1,0.8-3,1.5s-1.5,1.5-2,2.5C324.9,694.1,324.7,695.3,324.7,696.5z"/>
</g>
<g class="st0">
	<path class="st1" d="M313.1,675.4H307V670h6.1V675.4z M354.3,675.3h-33.5v-5.5h33.5V675.3z"/>
</g>
<g class="st0">
	<path class="st1" d="M354.4,642.2c0.2,0.5,0.4,1.2,0.5,2.1s0.3,2.1,0.3,3.5c0,1.8-0.2,3.3-0.7,4.6c-0.4,1.3-1.1,2.4-1.9,3.2
		c-0.8,0.9-1.8,1.5-2.9,1.9c-1.2,0.4-2.4,0.6-3.8,0.6h-20.4v6.4h-4.7v-6.4h-9.2v-5.5h9.2v-10h4.7v10H345c0.8,0,1.5-0.1,2.1-0.3
		c0.7-0.2,1.2-0.6,1.7-1.1s0.9-1.1,1.1-1.8c0.3-0.8,0.4-1.7,0.4-2.7c0-0.7-0.1-1.5-0.2-2.3s-0.3-1.6-0.5-2.2H354.4z"/>
</g>
<g class="st0">
	<path class="st1" d="M355.2,623.3c0,1.7-0.2,3.3-0.6,4.7s-0.9,2.6-1.6,3.6s-1.5,1.9-2.4,2.7c-1,0.7-2,1.3-3.1,1.7
		c-0.8,0.3-1.8,0.6-2.8,0.7c-1,0.1-2.1,0.2-3.3,0.2h-20.5v-5.5h20.5c1.9,0,3.4-0.2,4.7-0.7c1.4-0.6,2.5-1.5,3.3-2.7s1.2-2.9,1.2-4.8
		c0-2.1-0.4-3.7-1.3-5s-2.1-2.2-3.6-2.7c-1.2-0.4-2.6-0.6-4.3-0.6h-20.5v-5.5h20.6c1.1,0,2.2,0.1,3.2,0.2c1,0.1,1.9,0.3,2.7,0.6
		c1.2,0.4,2.2,1,3.2,1.7s1.8,1.7,2.5,2.7s1.3,2.3,1.6,3.8C355,619.9,355.2,621.5,355.2,623.3z"/>
</g>
<g class="st0">
	<path class="st1" d="M325.5,595.5L325.5,595.5c-0.8-0.7-1.5-1.4-2.2-2.1s-1.3-1.6-1.8-2.5s-0.9-1.9-1.2-3c-0.3-1.1-0.4-2.3-0.4-3.6
		c0-1.5,0.2-3,0.6-4.3s1.1-2.5,2-3.5s2.2-1.8,3.7-2.3c1.5-0.6,3.4-0.9,5.6-0.9h22.4v5.5h-21.5c-2.9,0-5,0.6-6.2,1.7
		c-1.3,1.1-1.9,2.7-1.9,4.9c0,1.9,0.5,3.7,1.6,5.5c1,1.8,2.5,3.3,4.3,4.5h23.8v5.5h-33.5v-4.2L325.5,595.5z"/>
</g>
<g class="st0">
	<path class="st1" d="M320,551.2c0-1.5,0.2-2.7,0.6-3.8s0.8-2,1.3-2.8s1.1-1.4,1.6-1.8c0.5-0.5,0.9-0.8,1.2-0.9v-0.1l-3.8-1.1v-4.1
		h35.4c2.6,0,4.8,0.4,6.7,1.3c1.9,0.8,3.5,2,4.8,3.6c1.3,1.5,2.2,3.4,2.8,5.5c0.6,2.1,0.9,4.5,0.9,7.1c0,2.2-0.2,4.2-0.6,5.9
		s-0.9,3.1-1.4,4.1H365c0.3-0.8,0.6-1.6,0.8-2.3c0.2-0.8,0.4-1.5,0.6-2.3s0.3-1.6,0.3-2.4s0.1-1.8,0.1-2.8c0-3.9-0.9-6.9-2.7-9
		c-1.8-2.1-4.6-3.1-8.4-3.1h-4.5v0.1c1.3,1.2,2.3,2.6,3,4.2c0.7,1.6,1,3.4,1,5.4c0,0.9-0.1,2-0.3,3c-0.2,1.1-0.6,2.2-1.1,3.2
		c-0.5,1.1-1.2,2.1-2,3.1s-1.9,1.9-3.1,2.6c-1.3,0.8-2.7,1.4-4.5,1.8c-1.7,0.5-3.7,0.7-6,0.7c-3.1,0-5.8-0.4-8.1-1.3s-4.2-2-5.7-3.3
		c-1.5-1.4-2.6-3-3.4-4.8C320.3,554.9,320,553.1,320,551.2z M337.8,560.4c2.6,0,4.8-0.3,6.4-1c1.7-0.6,3-1.4,3.9-2.4s1.6-2,1.9-3.2
		s0.5-2.2,0.5-3.3c0-1.7-0.3-3.3-1-4.8s-1.6-2.8-2.8-3.9h-17.5c-0.4,0.3-0.9,0.7-1.4,1.3c-0.5,0.5-1,1.2-1.5,1.9s-0.8,1.5-1.2,2.4
		s-0.5,1.9-0.5,3c0,1.6,0.3,3,1,4.3c0.6,1.2,1.5,2.3,2.7,3.1s2.5,1.5,4.1,1.9C334.1,560.2,335.9,560.4,337.8,560.4z"/>
</g>
<g class="st0">
	<path class="st1" d="M405,709.8c2.3,0,4.4,0.2,6.2,0.7s3.4,1.1,4.7,1.8s2.5,1.6,3.4,2.7c0.9,1,1.6,2.1,2.2,3.2
		c0.6,1.1,1,2.2,1.2,3.3s0.4,2.2,0.4,3.2c0,2.1-0.3,3.8-1,5.3s-1.7,2.9-3,4.1v0.1h19.5v5.4h-49.9v-4.1l3.8-1.2v-0.1
		c-0.5-0.3-0.9-0.7-1.4-1.2s-0.9-1.1-1.4-1.9c-0.5-0.8-0.9-1.8-1.3-2.9c-0.4-1.1-0.6-2.4-0.6-3.7c0-1.9,0.3-3.7,1-5.4
		c0.6-1.8,1.6-3.3,3-4.6s3.2-2.4,5.3-3.2C399.3,710.2,401.9,709.8,405,709.8z M405.1,715.5c-1.9,0-3.7,0.2-5.3,0.6
		c-1.5,0.4-2.9,1-4,1.9c-1.1,0.8-1.9,1.8-2.5,3s-0.9,2.6-0.9,4.2c0,1.1,0.2,2.2,0.5,3.1s0.7,1.8,1.2,2.5c0.5,0.8,1,1.4,1.5,1.9
		s1,1,1.4,1.3h17.5c1.2-1.2,2.1-2.5,2.8-4c0.7-1.5,1-3.1,1-4.8c0-1-0.2-2.1-0.6-3.3s-1.1-2.2-2.1-3.2s-2.4-1.8-4.1-2.4
		C409.9,715.8,407.8,715.5,405.1,715.5z"/>
</g>
<g class="st0">
	<path class="st1" d="M418.5,683L418.5,683c0.6,0.5,1.1,1.1,1.7,1.8s1,1.5,1.5,2.4s0.8,1.9,1,2.9c0.3,1.1,0.4,2.2,0.4,3.4
		c0,1.6-0.2,3.1-0.7,4.5s-1.2,2.5-2.1,3.5s-2.1,1.7-3.4,2.3c-1.3,0.5-2.9,0.8-4.5,0.8c-1.7,0-3.2-0.3-4.5-0.9
		c-1.3-0.6-2.4-1.4-3.3-2.5s-1.6-2.4-2.1-3.9s-0.7-3.2-0.7-5c0-1.7,0.2-3.3,0.5-4.8s0.6-2.8,1.1-3.9v-0.1h-2.3
		c-0.9,0-1.7,0.1-2.4,0.2c-0.7,0.1-1.3,0.3-1.9,0.6c-1.1,0.6-2.1,1.6-2.8,2.9c-0.7,1.3-1.1,3.1-1.1,5.4c0,1.7,0.2,3.3,0.5,4.8
		s0.8,3,1.3,4.5h-4.6c-0.3-0.6-0.5-1.2-0.8-2c-0.2-0.8-0.5-1.6-0.6-2.4c-0.2-0.8-0.3-1.7-0.4-2.7s-0.1-1.9-0.1-2.8
		c0-3.4,0.6-6.1,1.8-8.3c1.2-2.2,2.8-3.7,4.8-4.6c0.8-0.4,1.6-0.6,2.5-0.8s1.9-0.2,3-0.2h22.3v4.6L418.5,683z M407.5,683.2
		c-0.3,1-0.6,2.2-0.8,3.6c-0.3,1.4-0.4,2.9-0.4,4.6c0,2.3,0.5,4.1,1.5,5.4c1,1.3,2.5,2,4.5,2c1,0,1.9-0.2,2.7-0.5s1.4-0.8,1.9-1.4
		c0.5-0.6,0.9-1.3,1.1-2c0.2-0.8,0.4-1.6,0.4-2.5c0-1.2-0.2-2.3-0.5-3.3s-0.7-1.9-1.2-2.7s-0.9-1.5-1.4-2s-0.8-1-1.1-1.2
		L407.5,683.2L407.5,683.2z"/>
</g>
<g class="st0">
	<path class="st1" d="M393.1,650.6v0.4c0,1.3,0.1,2.6,0.4,3.8c0.2,1.2,0.6,2.4,1.1,3.5s1.1,2.1,1.8,3c0.7,0.9,1.5,1.6,2.5,2.2h23.3
		v5.5h-33.5v-4.2l5.3-1.1v-0.1c-0.9-0.5-1.7-1.2-2.4-2s-1.4-1.7-2-2.7s-1-2.1-1.3-3.2c-0.3-1.2-0.5-2.4-0.5-3.7c0-0.2,0-0.5,0-0.7
		s0-0.5,0.1-0.7H393.1z"/>
</g>
<g class="st0">
	<path class="st1" d="M375.4,623.8c-0.1,0.7-0.2,1.5-0.3,2.3s-0.1,1.6-0.1,2.2c0,1.2,0.2,2.3,0.5,3.3s0.8,1.8,1.5,2.4
		c0.7,0.7,1.5,1.2,2.6,1.5c1.1,0.4,2.4,0.5,4,0.5h5.1v-10h4.7v10h28.8v5.5h-28.8v5.9h-4.7v-5.9h-5.1c-2.4,0-4.5-0.3-6.1-1
		c-1.7-0.6-3-1.5-4.1-2.7c-1.1-1.1-1.9-2.5-2.4-4s-0.8-3.2-0.8-4.9c0-1.1,0.1-2.2,0.2-3.1c0.1-1,0.2-1.7,0.4-2.1L375.4,623.8
		L375.4,623.8z"/>
</g>
<g class="st0">
	<path class="st1" d="M423,607.6c0,1.7-0.2,3.3-0.6,4.7s-0.9,2.6-1.6,3.6s-1.5,1.9-2.4,2.7c-1,0.7-2,1.3-3.1,1.7
		c-0.8,0.3-1.8,0.6-2.8,0.7c-1,0.1-2.1,0.2-3.3,0.2h-20.5v-5.5h20.5c1.9,0,3.4-0.2,4.7-0.7c1.4-0.6,2.5-1.5,3.3-2.7s1.2-2.9,1.2-4.8
		c0-2.1-0.4-3.7-1.3-5s-2.1-2.2-3.6-2.7c-1.2-0.4-2.6-0.6-4.3-0.6h-20.5v-5.5h20.6c1.1,0,2.2,0.1,3.2,0.2c1,0.1,1.9,0.3,2.7,0.6
		c1.2,0.4,2.2,1,3.2,1.7s1.8,1.7,2.5,2.7s1.3,2.3,1.6,3.8C422.8,604.2,423,605.8,423,607.6z"/>
</g>
<g class="st0">
	<path class="st1" d="M422.2,557.7v5.5h-21.5c-1.5,0-2.7,0.2-3.7,0.5s-1.9,0.8-2.5,1.4c-0.7,0.6-1.1,1.3-1.4,2.1s-0.5,1.8-0.5,2.8
		c0,2,0.5,3.7,1.6,5.3c1,1.6,2.5,3,4.3,4.3h23.8v5.5h-33.5v-4.2l4.7-1.1v-0.1c-0.8-0.6-1.5-1.3-2.2-2s-1.3-1.5-1.8-2.4
		s-0.9-1.8-1.2-2.9c-0.3-1.1-0.4-2.2-0.4-3.5c0-2.5,0.6-4.6,1.8-6.2c1.2-1.6,2.8-2.9,4.9-3.8v-0.1c-2.1-1.5-3.7-3.2-4.9-5.1
		c-1.2-1.9-1.8-4.1-1.8-6.7c0-1.2,0.2-2.4,0.5-3.7s0.9-2.5,1.8-3.6s2.1-2,3.6-2.8c1.5-0.7,3.5-1.1,6-1.1h22.4v5.5h-21.5
		c-1.5,0-2.7,0.2-3.7,0.5s-1.9,0.8-2.5,1.4c-0.7,0.6-1.1,1.3-1.4,2.2s-0.5,1.8-0.5,2.8c0,1.9,0.5,3.7,1.6,5.3c1,1.6,2.5,3,4.3,4.3
		h23.7L422.2,557.7L422.2,557.7z"/>
</g>
<g>
	<g>
		<g>
			<defs>
				<rect id="SVGID_9_" y="-49.2" width="1280" height="960.2"/>
			</defs>
			<clipPath id="SVGID_10_">
				<use xlink:href="#SVGID_9_"  style="overflow:visible;"/>
			</clipPath>
			<g class="st6">
				<g class="st0">
					<path class="st1" d="M879.8,709.4c3.1,0,5.8,0.4,8.1,1.3c2.3,0.8,4.2,2,5.7,3.3c1.5,1.4,2.6,3,3.3,4.8s1.1,3.6,1.1,5.5
						c0,1.4-0.2,2.7-0.5,3.8c-0.4,1.1-0.8,2-1.3,2.8s-1,1.4-1.5,1.8c-0.5,0.5-0.9,0.8-1.2,1v0.1l3.7,1.2v4.1h-51v-5.5h20.7v-0.1
						c-1.3-1.2-2.3-2.6-3-4.2c-0.7-1.6-1.1-3.4-1.1-5.5c0-0.9,0.1-2,0.3-3c0.2-1.1,0.6-2.2,1.1-3.2c0.5-1.1,1.2-2.1,2-3.1
						s1.9-1.9,3.2-2.6c1.3-0.8,2.7-1.3,4.5-1.8C875.6,709.7,877.6,709.4,879.8,709.4z M880.2,715.1c-2.7,0-4.8,0.3-6.5,0.9
						c-1.7,0.6-2.9,1.4-3.9,2.4c-0.9,1-1.6,2-1.9,3.1c-0.4,1.1-0.5,2.2-0.5,3.3c0,1.7,0.4,3.3,1.1,4.8c0.7,1.5,1.6,2.8,2.7,4h17.5
						c0.4-0.3,0.9-0.8,1.5-1.3c0.5-0.5,1-1.2,1.5-1.9s0.8-1.5,1.2-2.4c0.3-0.9,0.5-1.9,0.5-3c0-1.6-0.3-3-1-4.3
						c-0.6-1.2-1.5-2.3-2.7-3.1s-2.5-1.5-4.2-1.9C883.9,715.3,882.2,715.1,880.2,715.1z"/>
				</g>
				<g class="st0">
					<path class="st1" d="M868.1,683.8v0.4c0,1.3,0.1,2.6,0.4,3.8c0.2,1.2,0.6,2.4,1.1,3.5s1.1,2.1,1.8,3s1.5,1.6,2.5,2.2h23.3v5.5
						h-33.5V698l5.3-1.1v-0.1c-0.9-0.5-1.7-1.2-2.4-2s-1.4-1.7-2-2.7s-1-2.1-1.3-3.2c-0.3-1.2-0.5-2.4-0.5-3.7c0-0.2,0-0.5,0-0.7
						s0-0.5,0.1-0.7H868.1z"/>
				</g>
				<g class="st0">
					<path class="st1" d="M893.4,659.7L893.4,659.7c0.6,0.5,1.1,1.1,1.7,1.8c0.6,0.7,1,1.5,1.5,2.4s0.8,1.9,1,2.9
						c0.3,1.1,0.4,2.2,0.4,3.4c0,1.6-0.2,3.1-0.7,4.5s-1.2,2.5-2.1,3.5s-2.1,1.7-3.4,2.3c-1.3,0.5-2.9,0.8-4.5,0.8
						c-1.7,0-3.2-0.3-4.5-0.9c-1.3-0.6-2.4-1.4-3.3-2.5c-0.9-1.1-1.6-2.4-2.1-3.9s-0.7-3.2-0.7-5c0-1.7,0.2-3.3,0.5-4.8
						s0.6-2.8,1.1-3.9v-0.1H876c-0.9,0-1.7,0.1-2.4,0.2c-0.7,0.1-1.3,0.3-1.9,0.6c-1.1,0.6-2.1,1.6-2.8,2.9
						c-0.7,1.3-1.1,3.1-1.1,5.4c0,1.7,0.2,3.3,0.5,4.8s0.8,3,1.3,4.5H865c-0.3-0.6-0.5-1.2-0.8-2c-0.2-0.8-0.5-1.6-0.6-2.4
						c-0.2-0.8-0.3-1.7-0.4-2.7s-0.1-1.9-0.1-2.8c0-3.4,0.6-6.1,1.8-8.3s2.8-3.7,4.8-4.6c0.8-0.4,1.6-0.6,2.5-0.8s1.9-0.2,3-0.2
						h22.3v4.6L893.4,659.7z M882.4,659.9c-0.3,1-0.6,2.2-0.8,3.6c-0.3,1.4-0.4,2.9-0.4,4.6c0,2.3,0.5,4.1,1.5,5.4
						c1,1.3,2.5,2,4.5,2c1,0,1.9-0.2,2.7-0.5s1.4-0.8,1.9-1.4c0.5-0.6,0.9-1.3,1.1-2c0.2-0.8,0.4-1.6,0.4-2.5c0-1.2-0.2-2.3-0.5-3.3
						s-0.7-1.9-1.2-2.7s-0.9-1.5-1.4-2s-0.8-1-1.1-1.2L882.4,659.9L882.4,659.9z"/>
				</g>
				<g class="st0">
					<path class="st1" d="M897.2,627.5c0.2,0.5,0.4,1.2,0.5,2.1s0.3,2.1,0.3,3.5c0,1.8-0.2,3.3-0.7,4.6c-0.4,1.3-1.1,2.4-1.9,3.2
						c-0.8,0.9-1.8,1.5-2.9,1.9c-1.2,0.4-2.4,0.6-3.8,0.6h-20.4v6.4h-4.7v-6.4h-9.2V638h9.2v-10h4.7v10h19.5c0.8,0,1.5-0.1,2.1-0.3
						c0.7-0.2,1.2-0.6,1.7-1.1s0.9-1.1,1.1-1.8c0.3-0.8,0.4-1.7,0.4-2.7c0-0.7-0.1-1.5-0.2-2.3c-0.1-0.8-0.3-1.6-0.5-2.2h4.8
						L897.2,627.5L897.2,627.5z"/>
				</g>
				<g class="st0">
					<path class="st1" d="M869.2,600c3.1,0.7,5.7,1.4,8,2l20,5.4v5.5l-33.5,10.9v-5.5l20.9-6.2c2.7-0.8,4.9-1.5,6.6-1.9v-0.1
						c-1.7-0.4-4.1-1-7.3-1.9l-20.1-5.6v-5.5l20.1-6.1c2.7-0.8,5.2-1.5,7.3-2v-0.1c-2.2-0.6-4.4-1.2-6.6-1.9l-20.9-6.2v-5.5
						l33.5,11.2v5.7l-20,5.6C874.8,598.5,872.2,599.2,869.2,600L869.2,600z"/>
				</g>
				<g class="st0">
					<path class="st1" d="M898,556.5c0,1.7-0.2,3.3-0.6,4.7c-0.4,1.4-0.9,2.6-1.6,3.6c-0.7,1-1.5,1.9-2.4,2.7c-1,0.7-2,1.3-3.1,1.7
						c-0.8,0.3-1.8,0.6-2.8,0.7c-1,0.1-2.1,0.2-3.3,0.2h-20.5v-5.5h20.5c1.9,0,3.4-0.2,4.7-0.7c1.4-0.6,2.5-1.5,3.3-2.7
						s1.2-2.9,1.2-4.8c0-2.1-0.4-3.7-1.3-5s-2.1-2.2-3.6-2.7c-1.2-0.4-2.6-0.6-4.3-0.6h-20.5v-5.5h20.6c1.1,0,2.2,0.1,3.2,0.2
						c1,0.1,1.9,0.3,2.7,0.6c1.2,0.4,2.2,1,3.2,1.7s1.8,1.7,2.5,2.7s1.3,2.3,1.6,3.8C897.8,553.1,898,554.7,898,556.5z"/>
				</g>
				<g class="st0">
					<path class="st1" d="M868.1,515.5v0.4c0,1.3,0.1,2.6,0.4,3.8c0.2,1.2,0.6,2.4,1.1,3.5s1.1,2.1,1.8,3s1.5,1.6,2.5,2.2h23.3v5.5
						h-33.5v-4.2l5.3-1.1v-0.1c-0.9-0.5-1.7-1.2-2.4-2s-1.4-1.7-2-2.7s-1-2.1-1.3-3.2c-0.3-1.2-0.5-2.4-0.5-3.7c0-0.2,0-0.5,0-0.7
						s0-0.5,0.1-0.7H868.1z"/>
				</g>
				<g class="st0">
					<path class="st1" d="M872.6,506c0.9,0,1.7-0.2,2.3-0.6s1.1-0.9,1.4-1.6c0.4-0.7,0.7-1.4,0.9-2.3s0.4-1.8,0.6-2.7
						c0.3-1.3,0.6-2.5,0.9-3.6c0.3-1.1,0.9-2.2,1.5-3.1c0.7-1,1.6-1.7,2.8-2.3c1.2-0.6,2.7-0.9,4.5-0.9c1.7,0,3.2,0.3,4.5,1
						s2.4,1.6,3.3,2.8s1.5,2.6,2,4.3s0.7,3.5,0.7,5.5c0,1.2-0.1,2.3-0.2,3.3c-0.1,1-0.3,1.9-0.5,2.6c-0.2,0.8-0.4,1.4-0.6,2
						c-0.2,0.5-0.4,1-0.6,1.3h-4.6c0.6-1.4,1-2.8,1.3-4.1c0.3-1.4,0.5-2.9,0.5-4.5c0-1.3-0.1-2.5-0.4-3.5c-0.2-1-0.6-1.9-1-2.7
						s-1-1.3-1.7-1.7c-0.7-0.4-1.5-0.6-2.4-0.6s-1.7,0.2-2.3,0.6s-1.1,0.9-1.5,1.5s-0.7,1.3-1,2.2c-0.3,0.8-0.5,1.7-0.7,2.6
						c-0.3,1.2-0.6,2.4-0.9,3.6s-0.8,2.3-1.5,3.3c-0.6,1-1.5,1.8-2.6,2.4s-2.5,0.9-4.2,0.9c-1.8,0-3.3-0.3-4.6-1
						c-1.3-0.6-2.4-1.5-3.2-2.6s-1.5-2.3-1.9-3.8c-0.4-1.4-0.6-2.9-0.6-4.5c0-1.9,0.2-3.6,0.5-5.2c0.4-1.6,0.8-3,1.3-4.3h4.7
						c-0.5,1.4-1,2.8-1.3,4.2c-0.3,1.4-0.5,2.9-0.5,4.3c0,1.3,0.1,2.3,0.4,3.2c0.3,0.9,0.6,1.6,1.1,2.2s1,1,1.6,1.3
						C871.1,505.9,871.8,506,872.6,506z"/>
				</g>
				<g class="st0">
					<path class="st1" d="M897.2,463.4c0.2,0.5,0.4,1.2,0.5,2.1s0.3,2.1,0.3,3.5c0,1.8-0.2,3.3-0.7,4.6c-0.4,1.3-1.1,2.4-1.9,3.2
						c-0.8,0.9-1.8,1.5-2.9,1.9c-1.2,0.4-2.4,0.6-3.8,0.6h-20.4v6.4h-4.7v-6.4h-9.2v-5.5h9.2v-10h4.7v10h19.5c0.8,0,1.5-0.1,2.1-0.3
						c0.7-0.2,1.2-0.6,1.7-1.1s0.9-1.1,1.1-1.8c0.3-0.8,0.4-1.7,0.4-2.7c0-0.7-0.1-1.5-0.2-2.3c-0.1-0.8-0.3-1.6-0.5-2.2
						L897.2,463.4L897.2,463.4z"/>
				</g>
			</g>
		</g>
	</g>
</g>
<g class="st0">
	<path class="st1" d="M554.2,719.9L554.2,719.9c0.6,0.5,1.1,1.1,1.7,1.8c0.6,0.7,1,1.5,1.5,2.4s0.8,1.9,1,2.9
		c0.3,1.1,0.4,2.2,0.4,3.4c0,1.6-0.2,3.1-0.7,4.5s-1.2,2.5-2.1,3.5s-2.1,1.7-3.4,2.3c-1.3,0.5-2.9,0.8-4.5,0.8
		c-1.7,0-3.2-0.3-4.5-0.9c-1.3-0.6-2.4-1.4-3.3-2.5c-0.9-1.1-1.6-2.4-2.1-3.9s-0.7-3.2-0.7-5c0-1.7,0.2-3.3,0.5-4.8s0.6-2.8,1.1-3.9
		v-0.1h-2.3c-0.9,0-1.7,0.1-2.4,0.2c-0.7,0.1-1.3,0.3-1.9,0.6c-1.1,0.6-2.1,1.6-2.8,2.9c-0.7,1.3-1.1,3.1-1.1,5.4
		c0,1.7,0.2,3.3,0.5,4.8s0.8,3,1.3,4.5h-4.6c-0.3-0.6-0.5-1.2-0.8-2c-0.2-0.8-0.5-1.6-0.6-2.4c-0.2-0.8-0.3-1.7-0.4-2.7
		s-0.1-1.9-0.1-2.8c0-3.4,0.6-6.1,1.8-8.3s2.8-3.7,4.8-4.6c0.8-0.4,1.6-0.6,2.5-0.8s1.9-0.2,3-0.2h22.3v4.6L554.2,719.9z
		 M543.2,720.1c-0.3,1-0.6,2.2-0.8,3.6c-0.3,1.4-0.4,2.9-0.4,4.6c0,2.3,0.5,4.1,1.5,5.4c1,1.3,2.5,2,4.5,2c1,0,1.9-0.2,2.7-0.5
		s1.4-0.8,1.9-1.4c0.5-0.6,0.9-1.3,1.1-2c0.2-0.8,0.4-1.6,0.4-2.5c0-1.2-0.2-2.3-0.5-3.3s-0.7-1.9-1.2-2.7s-0.9-1.5-1.4-2
		s-0.8-1-1.1-1.2L543.2,720.1L543.2,720.1z"/>
</g>
<g class="st0">
	<path class="st1" d="M540.6,675.9c3.1,0,5.8,0.4,8.1,1.3c2.3,0.8,4.2,2,5.7,3.3c1.5,1.4,2.6,3,3.3,4.8s1.1,3.6,1.1,5.5
		c0,1.4-0.2,2.7-0.5,3.8c-0.4,1.1-0.8,2-1.3,2.8s-1,1.4-1.5,1.8c-0.5,0.5-0.9,0.8-1.2,1v0.1l3.7,1.2v4.1h-51v-5.5h20.7V700
		c-1.3-1.2-2.3-2.6-3-4.2c-0.7-1.6-1.1-3.4-1.1-5.5c0-0.9,0.1-2,0.3-3c0.2-1.1,0.6-2.2,1.1-3.2c0.5-1.1,1.2-2.1,2-3.1
		s1.9-1.9,3.2-2.6c1.3-0.8,2.7-1.3,4.5-1.8C536.3,676.2,538.3,675.9,540.6,675.9z M541,681.6c-2.7,0-4.8,0.3-6.5,0.9
		c-1.7,0.6-2.9,1.4-3.9,2.4c-0.9,1-1.6,2-1.9,3.1c-0.4,1.1-0.5,2.2-0.5,3.3c0,1.7,0.4,3.3,1.1,4.8c0.7,1.5,1.6,2.8,2.7,4h17.5
		c0.4-0.3,0.9-0.8,1.5-1.3c0.5-0.5,1-1.2,1.5-1.9s0.8-1.5,1.2-2.4c0.3-0.9,0.5-1.9,0.5-3c0-1.6-0.3-3-1-4.3
		c-0.6-1.2-1.5-2.3-2.7-3.1s-2.5-1.5-4.2-1.9C544.7,681.8,542.9,681.6,541,681.6z"/>
</g>
<g class="st0">
	<path class="st1" d="M523.5,655.5c0-1.5,0.2-2.7,0.6-3.8c0.4-1.1,0.8-2,1.3-2.8s1.1-1.4,1.6-1.8c0.5-0.5,0.9-0.8,1.2-0.9V646
		l-3.8-1.1v-4.1h35.4c2.6,0,4.8,0.4,6.7,1.3c1.9,0.8,3.5,2,4.8,3.6c1.3,1.5,2.2,3.4,2.8,5.5s0.9,4.5,0.9,7.1c0,2.2-0.2,4.2-0.6,5.9
		c-0.4,1.7-0.9,3.1-1.4,4.1h-4.6c0.3-0.8,0.6-1.6,0.8-2.3c0.2-0.8,0.4-1.5,0.6-2.3c0.2-0.8,0.3-1.6,0.3-2.4s0.1-1.8,0.1-2.8
		c0-3.9-0.9-6.9-2.7-9s-4.6-3.1-8.4-3.1h-4.5v0.1c1.3,1.2,2.3,2.6,3,4.2c0.7,1.6,1,3.4,1,5.4c0,0.9-0.1,2-0.3,3
		c-0.2,1.1-0.6,2.2-1.1,3.2c-0.5,1.1-1.2,2.1-2,3.1s-1.9,1.9-3.1,2.6c-1.3,0.8-2.7,1.4-4.5,1.8c-1.7,0.5-3.7,0.7-6,0.7
		c-3.1,0-5.8-0.4-8.1-1.3s-4.2-2-5.7-3.3c-1.5-1.4-2.6-3-3.4-4.8C523.9,659.2,523.5,657.4,523.5,655.5z M541.4,664.7
		c2.6,0,4.8-0.3,6.4-1c1.7-0.6,3-1.4,3.9-2.4s1.6-2,1.9-3.2c0.3-1.2,0.5-2.2,0.5-3.3c0-1.7-0.3-3.3-1-4.8s-1.6-2.8-2.8-3.9h-17.5
		c-0.4,0.3-0.9,0.7-1.4,1.3c-0.5,0.5-1,1.2-1.5,1.9s-0.8,1.5-1.2,2.4s-0.5,1.9-0.5,3c0,1.6,0.3,3,1,4.3c0.6,1.2,1.5,2.3,2.7,3.1
		s2.5,1.5,4.1,1.9C537.6,664.5,539.4,664.7,541.4,664.7z"/>
	<path class="st1" d="M554.2,611.5L554.2,611.5c0.6,0.5,1.1,1.1,1.7,1.8c0.6,0.7,1,1.5,1.5,2.4s0.8,1.9,1,2.9
		c0.3,1.1,0.4,2.2,0.4,3.4c0,1.6-0.2,3.1-0.7,4.5s-1.2,2.5-2.1,3.5c-0.9,1-2.1,1.7-3.4,2.3s-2.9,0.8-4.5,0.8c-1.7,0-3.2-0.3-4.5-0.9
		c-1.3-0.6-2.4-1.4-3.3-2.5s-1.6-2.4-2.1-3.9s-0.7-3.2-0.7-5c0-1.7,0.2-3.3,0.5-4.8s0.6-2.8,1.1-3.9V612h-2.3
		c-0.9,0-1.7,0.1-2.4,0.2c-0.7,0.1-1.3,0.3-1.9,0.6c-1.1,0.6-2.1,1.6-2.8,2.9c-0.7,1.3-1.1,3.1-1.1,5.4c0,1.7,0.2,3.3,0.5,4.8
		s0.8,3,1.3,4.5h-4.6c-0.3-0.6-0.5-1.2-0.8-2c-0.2-0.8-0.5-1.6-0.6-2.4c-0.2-0.8-0.3-1.7-0.4-2.7s-0.1-1.9-0.1-2.8
		c0-3.4,0.6-6.1,1.8-8.3c1.2-2.1,2.8-3.7,4.8-4.6c0.8-0.4,1.6-0.6,2.5-0.8s1.9-0.2,3-0.2h22.3v4.6L554.2,611.5z M543.2,611.8
		c-0.3,1-0.6,2.2-0.8,3.6c-0.3,1.4-0.4,2.9-0.4,4.6c0,2.3,0.5,4.1,1.5,5.4c1,1.3,2.5,2,4.5,2c1,0,1.9-0.2,2.7-0.5s1.4-0.8,1.9-1.4
		c0.5-0.6,0.9-1.3,1.1-2c0.2-0.8,0.4-1.6,0.4-2.5c0-1.2-0.2-2.3-0.5-3.3s-0.7-1.9-1.2-2.7s-0.9-1.4-1.4-2s-0.8-1-1.1-1.2
		L543.2,611.8L543.2,611.8z"/>
</g>
<g class="st0">
	<path class="st1" d="M533.3,594.4c0.9,0,1.7-0.2,2.3-0.6c0.6-0.4,1.1-0.9,1.4-1.6c0.4-0.7,0.7-1.4,0.9-2.3c0.2-0.9,0.4-1.8,0.6-2.7
		c0.3-1.3,0.6-2.5,0.9-3.6c0.3-1.1,0.9-2.2,1.5-3.1c0.7-1,1.6-1.7,2.8-2.3s2.7-0.9,4.5-0.9c1.7,0,3.2,0.3,4.5,1s2.4,1.6,3.3,2.8
		s1.5,2.6,2,4.3s0.7,3.5,0.7,5.5c0,1.2-0.1,2.3-0.2,3.3c-0.1,1-0.3,1.9-0.5,2.6c-0.2,0.8-0.4,1.4-0.6,2c-0.2,0.5-0.4,1-0.6,1.3h-4.6
		c0.6-1.4,1-2.8,1.3-4.1c0.3-1.4,0.5-2.9,0.5-4.5c0-1.3-0.1-2.5-0.4-3.5c-0.2-1-0.6-1.9-1-2.7s-1-1.3-1.7-1.7s-1.5-0.6-2.4-0.6
		s-1.7,0.2-2.3,0.6c-0.6,0.4-1.1,0.9-1.5,1.5s-0.7,1.3-1,2.2c-0.3,0.8-0.5,1.7-0.7,2.6c-0.3,1.2-0.6,2.4-0.9,3.6s-0.8,2.3-1.5,3.3
		c-0.6,1-1.5,1.8-2.6,2.4c-1.1,0.6-2.5,0.9-4.2,0.9c-1.8,0-3.3-0.3-4.6-1c-1.3-0.6-2.4-1.5-3.2-2.6s-1.5-2.3-1.9-3.8
		c-0.4-1.4-0.6-2.9-0.6-4.5c0-1.9,0.2-3.6,0.5-5.2c0.4-1.6,0.8-3,1.3-4.3h4.7c-0.5,1.4-1,2.8-1.3,4.2s-0.5,2.9-0.5,4.3
		c0,1.3,0.1,2.3,0.4,3.2c0.3,0.9,0.6,1.6,1.1,2.2s1,1,1.6,1.3C531.9,594.3,532.6,594.4,533.3,594.4z"/>
</g>
<g class="st0">
	<path class="st1" d="M930.6,726.5c0-1.5,0.2-2.7,0.6-3.8c0.4-1.1,0.8-2,1.3-2.8s1.1-1.4,1.6-1.8c0.5-0.5,0.9-0.8,1.2-0.9V717
		l-3.8-1.1v-4.1H967c2.6,0,4.8,0.4,6.7,1.3c1.9,0.8,3.5,2,4.8,3.6c1.3,1.5,2.2,3.4,2.8,5.5s0.9,4.5,0.9,7.1c0,2.2-0.2,4.2-0.6,5.9
		c-0.4,1.7-0.9,3.1-1.4,4.1h-4.6c0.3-0.8,0.6-1.6,0.8-2.3c0.2-0.8,0.4-1.5,0.6-2.3c0.2-0.8,0.3-1.6,0.3-2.4s0.1-1.8,0.1-2.8
		c0-3.9-0.9-6.9-2.7-9s-4.6-3.1-8.4-3.1h-4.5v0.1c1.3,1.2,2.3,2.6,3,4.2c0.7,1.6,1,3.4,1,5.4c0,0.9-0.1,2-0.3,3
		c-0.2,1.1-0.6,2.2-1.1,3.2c-0.5,1.1-1.2,2.1-2,3.1s-1.9,1.9-3.1,2.6c-1.3,0.8-2.7,1.4-4.5,1.8c-1.7,0.5-3.7,0.7-6,0.7
		c-3.1,0-5.8-0.4-8.1-1.3s-4.2-2-5.7-3.3c-1.5-1.4-2.6-3-3.4-4.8C931,730.2,930.6,728.4,930.6,726.5z M948.5,735.7
		c2.6,0,4.8-0.3,6.4-1c1.7-0.6,3-1.4,3.9-2.4s1.6-2,1.9-3.2c0.3-1.2,0.5-2.2,0.5-3.3c0-1.7-0.3-3.3-1-4.8s-1.6-2.8-2.8-3.9h-17.5
		c-0.4,0.3-0.9,0.7-1.4,1.3c-0.5,0.5-1,1.2-1.5,1.9s-0.8,1.5-1.2,2.4s-0.5,1.9-0.5,3c0,1.6,0.3,3,1,4.3c0.6,1.2,1.5,2.3,2.7,3.1
		s2.5,1.5,4.1,1.9C944.7,735.5,946.5,735.7,948.5,735.7z"/>
</g>
<g class="st0">
	<path class="st1" d="M936,684.5v0.4c0,1.3,0.1,2.6,0.4,3.8c0.2,1.2,0.6,2.4,1.1,3.5s1.1,2.1,1.8,3s1.5,1.6,2.5,2.2H965v5.5h-33.5
		v-4.2l5.3-1.1v-0.1c-0.9-0.5-1.7-1.2-2.4-2s-1.4-1.7-2-2.7s-1-2.1-1.3-3.2c-0.3-1.2-0.5-2.4-0.5-3.7c0-0.2,0-0.5,0-0.7
		s0-0.5,0.1-0.7H936z"/>
</g>
<g class="st0">
	<path class="st1" d="M923.7,679.4h-6.1V674h6.1V679.4z M965,679.3h-33.5v-5.5H965V679.3z"/>
	<path class="st1" d="M965,664.5h-51V659h51V664.5z"/>
</g>
<g class="st0">
	<path class="st1" d="M965,649.9h-51v-5.5h51V649.9z"/>
</g>
<g class="st0">
	<path class="st1" d="M1029.1,719.9L1029.1,719.9c0.6,0.5,1.1,1.1,1.7,1.8s1,1.5,1.5,2.4s0.8,1.9,1,2.9c0.3,1.1,0.4,2.2,0.4,3.4
		c0,1.6-0.2,3.1-0.7,4.5s-1.2,2.5-2.1,3.5s-2.1,1.7-3.4,2.3c-1.3,0.5-2.9,0.8-4.5,0.8c-1.7,0-3.2-0.3-4.5-0.9
		c-1.3-0.6-2.4-1.4-3.3-2.5c-0.9-1.1-1.6-2.4-2.1-3.9s-0.7-3.2-0.7-5c0-1.7,0.2-3.3,0.5-4.8s0.6-2.8,1.1-3.9v-0.1h-2.3
		c-0.9,0-1.7,0.1-2.4,0.2c-0.7,0.1-1.3,0.3-1.9,0.6c-1.1,0.6-2.1,1.6-2.8,2.9c-0.7,1.3-1.1,3.1-1.1,5.4c0,1.7,0.2,3.3,0.5,4.8
		s0.8,3,1.3,4.5h-4.6c-0.3-0.6-0.5-1.2-0.8-2c-0.2-0.8-0.5-1.6-0.6-2.4c-0.2-0.8-0.3-1.7-0.4-2.7s-0.1-1.9-0.1-2.8
		c0-3.4,0.6-6.1,1.8-8.3s2.8-3.7,4.8-4.6c0.8-0.4,1.6-0.6,2.5-0.8s1.9-0.2,3-0.2h22.3v4.6L1029.1,719.9z M1018.1,720.1
		c-0.3,1-0.6,2.2-0.8,3.6c-0.3,1.4-0.4,2.9-0.4,4.6c0,2.3,0.5,4.1,1.5,5.4c1,1.3,2.5,2,4.5,2c1,0,1.9-0.2,2.7-0.5s1.4-0.8,1.9-1.4
		c0.5-0.6,0.9-1.3,1.1-2c0.2-0.8,0.4-1.6,0.4-2.5c0-1.2-0.2-2.3-0.5-3.3s-0.7-1.9-1.2-2.7s-0.9-1.5-1.4-2s-0.8-1-1.1-1.2
		L1018.1,720.1L1018.1,720.1z"/>
</g>
<g class="st0">
	<path class="st1" d="M1032.8,705.6h-51v-5.5h51V705.6z"/>
</g>
<g class="st0">
	<path class="st1" d="M999.3,669.7v-7.1l15.4,16.3l18.1-16.3v6.8l-17.8,16.1v0.1h17.8v5.5h-51v-5.5h32.5v-0.1L999.3,669.7z"/>
</g>
<g class="st0">
	<path class="st1" d="M1016.1,629.8c2.6,0,5,0.4,7.2,1.1s4,1.8,5.5,3.2s2.7,3,3.6,5c0.8,2,1.3,4.1,1.3,6.6s-0.4,4.7-1.3,6.7
		s-2,3.6-3.6,5c-1.5,1.4-3.4,2.4-5.5,3.2c-2.2,0.7-4.6,1.1-7.2,1.1c-2.7,0-5.1-0.4-7.2-1.1s-4-1.8-5.6-3.2c-1.5-1.4-2.7-3-3.6-5
		s-1.3-4.2-1.3-6.6c0-2.5,0.4-4.7,1.3-6.7s2-3.6,3.6-5s3.4-2.4,5.6-3.1S1013.5,629.8,1016.1,629.8z M1016.1,635.5
		c-2.1,0-3.9,0.3-5.5,0.8s-3,1.2-4.1,2.1c-1.1,0.9-2,2-2.5,3.2c-0.6,1.2-0.9,2.6-0.9,4.1s0.3,2.8,0.9,4.1c0.6,1.2,1.4,2.3,2.5,3.2
		s2.5,1.6,4.1,2.1s3.4,0.8,5.5,0.8c2,0,3.9-0.3,5.5-0.8s3-1.2,4.1-2.1c1.1-0.9,1.9-2,2.5-3.2s0.9-2.6,0.9-4.1s-0.3-2.8-0.9-4.1
		c-0.6-1.2-1.4-2.3-2.5-3.2s-2.5-1.6-4.1-2.1S1018.2,635.5,1016.1,635.5z"/>
	<path class="st1" d="M1003.9,616.3L1003.9,616.3c-0.8-0.7-1.5-1.4-2.2-2.1c-0.7-0.8-1.2-1.6-1.7-2.5s-0.9-1.9-1.1-3
		c-0.3-1.1-0.4-2.2-0.4-3.4c0-1.3,0.2-2.5,0.5-3.8s0.9-2.4,1.8-3.5c0.9-1.1,2.1-2,3.6-2.6c1.5-0.7,3.5-1,6-1h22.4v5.5h-21.5
		c-2.7,0-4.7,0.5-6.1,1.5c-1.4,1-2,2.7-2,5c0,1.9,0.5,3.8,1.6,5.5c1,1.7,2.5,3.2,4.3,4.5h23.8v5.5h-51v-5.5h22L1003.9,616.3
		L1003.9,616.3z"/>
	<path class="st1" d="M1016.1,554.8c2.6,0,5,0.4,7.2,1.1s4,1.8,5.5,3.2s2.7,3,3.6,5s1.3,4.1,1.3,6.6s-0.4,4.7-1.3,6.7s-2,3.6-3.6,5
		c-1.5,1.4-3.4,2.4-5.5,3.2s-4.6,1.1-7.2,1.1c-2.7,0-5.1-0.4-7.2-1.1s-4-1.8-5.6-3.2c-1.5-1.4-2.7-3-3.6-5c-0.8-2-1.3-4.2-1.3-6.6
		c0-2.5,0.4-4.7,1.3-6.7s2-3.6,3.6-5s3.4-2.4,5.6-3.1S1013.5,554.8,1016.1,554.8z M1016.1,560.5c-2.1,0-3.9,0.3-5.5,0.8
		s-3,1.2-4.1,2.1c-1.1,0.9-2,2-2.5,3.2c-0.6,1.2-0.9,2.6-0.9,4.1s0.3,2.8,0.9,4.1c0.6,1.2,1.4,2.3,2.5,3.2s2.5,1.6,4.1,2.1
		s3.4,0.8,5.5,0.8c2,0,3.9-0.3,5.5-0.8s3-1.2,4.1-2.1c1.1-0.9,1.9-2,2.5-3.2s0.9-2.6,0.9-4.1s-0.3-2.8-0.9-4.1
		c-0.6-1.2-1.4-2.3-2.5-3.2s-2.5-1.6-4.1-2.1S1018.2,560.5,1016.1,560.5z"/>
</g>
<g class="st0">
	<path class="st1" d="M1032.8,548.9h-51v-5.5h51V548.9z"/>
</g>
<g class="st0">
	<path class="st1" d="M727.1,725.1c0-1.6,0.2-3.2,0.5-4.7s0.8-2.7,1.4-3.8h4.5c-0.6,1.5-1,2.8-1.3,4.1c-0.3,1.2-0.4,2.5-0.4,3.8
		c0,1.4,0.2,2.7,0.7,4.1c0.4,1.3,1.2,2.5,2.2,3.6s2.4,1.9,4.1,2.6c1.7,0.6,3.8,1,6.3,1c1.8,0,3.5-0.2,5-0.7s2.8-1.2,4-2.1
		c1.1-1,2-2.1,2.6-3.6c0.6-1.4,0.9-3.1,0.9-5c0-1.4-0.1-2.7-0.4-4.1c-0.3-1.4-0.7-2.7-1.3-4.1h4.5c0.2,0.4,0.5,0.9,0.7,1.6
		c0.2,0.6,0.4,1.4,0.6,2.1c0.2,0.8,0.3,1.6,0.4,2.5c0.1,0.9,0.2,1.7,0.2,2.6c0,2.3-0.3,4.4-1,6.4s-1.7,3.8-3.1,5.3
		c-1.4,1.5-3.2,2.7-5.4,3.6s-4.7,1.3-7.7,1.3c-2.2,0-4.2-0.2-6-0.7s-3.3-1.1-4.7-1.9c-1.3-0.8-2.5-1.7-3.4-2.8s-1.7-2.2-2.3-3.4
		s-1-2.5-1.3-3.8C727.2,727.5,727.1,726.3,727.1,725.1z"/>
</g>
<g class="st0">
	<path class="st1" d="M757.7,689.6L757.7,689.6c0.6,0.5,1.1,1.1,1.7,1.8c0.6,0.7,1,1.5,1.5,2.4s0.8,1.9,1,2.9
		c0.3,1.1,0.4,2.2,0.4,3.4c0,1.6-0.2,3.1-0.7,4.5s-1.2,2.5-2.1,3.5s-2.1,1.7-3.4,2.3c-1.3,0.5-2.9,0.8-4.5,0.8
		c-1.7,0-3.2-0.3-4.5-0.9c-1.3-0.6-2.4-1.4-3.3-2.5c-0.9-1.1-1.6-2.4-2.1-3.9s-0.7-3.2-0.7-5c0-1.7,0.2-3.3,0.5-4.8s0.6-2.8,1.1-3.9
		v-0.1H740c-0.9,0-1.7,0.1-2.4,0.2c-0.7,0.1-1.3,0.3-1.9,0.6c-1.1,0.6-2.1,1.6-2.8,2.9c-0.7,1.3-1.1,3.1-1.1,5.4
		c0,1.7,0.2,3.3,0.5,4.8s0.8,3,1.3,4.5H729c-0.3-0.6-0.5-1.2-0.8-2c-0.2-0.8-0.5-1.6-0.6-2.4c-0.2-0.8-0.3-1.7-0.4-2.7
		s-0.1-1.9-0.1-2.8c0-3.4,0.6-6.1,1.8-8.3s2.8-3.7,4.8-4.6c0.8-0.4,1.6-0.6,2.5-0.8s1.9-0.2,3-0.2h22.3v4.6L757.7,689.6z
		 M746.7,689.8c-0.3,1-0.6,2.2-0.8,3.6c-0.3,1.4-0.4,2.9-0.4,4.6c0,2.3,0.5,4.1,1.5,5.4c1,1.3,2.5,2,4.5,2c1,0,1.9-0.2,2.7-0.5
		s1.4-0.8,1.9-1.4c0.5-0.6,0.9-1.3,1.1-2c0.2-0.8,0.4-1.6,0.4-2.5c0-1.2-0.2-2.3-0.5-3.3s-0.7-1.9-1.2-2.7s-0.9-1.5-1.4-2
		s-0.8-1-1.1-1.2L746.7,689.8L746.7,689.8z"/>
</g>
<g class="st0">
	<path class="st1" d="M732.6,670.2L732.6,670.2c-0.8-0.7-1.5-1.4-2.2-2.1s-1.3-1.6-1.8-2.5s-0.9-1.9-1.2-3s-0.4-2.3-0.4-3.6
		c0-1.5,0.2-3,0.6-4.3s1.1-2.5,2-3.5s2.2-1.8,3.7-2.3c1.5-0.6,3.4-0.9,5.6-0.9h22.4v5.5h-21.5c-2.9,0-5,0.6-6.2,1.7
		c-1.3,1.1-1.9,2.7-1.9,4.9c0,1.9,0.5,3.7,1.6,5.5c1,1.8,2.5,3.3,4.3,4.5h23.8v5.5H728v-4.2L732.6,670.2z"/>
</g>
<g class="st0">
	<path class="st1" d="M757.7,619.8L757.7,619.8c0.6,0.5,1.1,1.1,1.7,1.8c0.6,0.7,1,1.5,1.5,2.4s0.8,1.9,1,2.9
		c0.3,1.1,0.4,2.2,0.4,3.4c0,1.6-0.2,3.1-0.7,4.5s-1.2,2.5-2.1,3.5s-2.1,1.7-3.4,2.3c-1.3,0.5-2.9,0.8-4.5,0.8
		c-1.7,0-3.2-0.3-4.5-0.9c-1.3-0.6-2.4-1.4-3.3-2.5c-0.9-1.1-1.6-2.4-2.1-3.9s-0.7-3.2-0.7-5c0-1.7,0.2-3.3,0.5-4.8s0.6-2.8,1.1-3.9
		V620H740c-0.9,0-1.7,0.1-2.4,0.2c-0.7,0.1-1.3,0.3-1.9,0.6c-1.1,0.6-2.1,1.6-2.8,2.9c-0.7,1.3-1.1,3.1-1.1,5.4
		c0,1.7,0.2,3.3,0.5,4.8s0.8,3,1.3,4.5H729c-0.3-0.6-0.5-1.2-0.8-2c-0.2-0.8-0.5-1.6-0.6-2.4c-0.2-0.8-0.3-1.7-0.4-2.7
		s-0.1-1.9-0.1-2.8c0-3.4,0.6-6.1,1.8-8.3s2.8-3.7,4.8-4.6c0.8-0.4,1.6-0.6,2.5-0.8s1.9-0.2,3-0.2h22.3v4.6L757.7,619.8z M746.7,620
		c-0.3,1-0.6,2.2-0.8,3.6c-0.3,1.4-0.4,2.9-0.4,4.6c0,2.3,0.5,4.1,1.5,5.4c1,1.3,2.5,2,4.5,2c1,0,1.9-0.2,2.7-0.5s1.4-0.8,1.9-1.4
		c0.5-0.6,0.9-1.3,1.1-2c0.2-0.8,0.4-1.6,0.4-2.5c0-1.2-0.2-2.3-0.5-3.3s-0.7-1.9-1.2-2.7s-0.9-1.5-1.4-2s-0.8-1-1.1-1.2L746.7,620
		L746.7,620z"/>
</g>
<g class="st0">
	<path class="st1" d="M744.1,575.8c3.1,0,5.8,0.4,8.1,1.3c2.3,0.8,4.2,2,5.7,3.3c1.5,1.4,2.6,3,3.3,4.8s1.1,3.6,1.1,5.5
		c0,1.4-0.2,2.7-0.5,3.8c-0.4,1.1-0.8,2-1.3,2.8s-1,1.4-1.5,1.8c-0.5,0.5-0.9,0.8-1.2,1v0.1l3.7,1.2v4.1h-51V600h20.7v-0.1
		c-1.3-1.2-2.3-2.6-3-4.2c-0.7-1.6-1.1-3.4-1.1-5.5c0-0.9,0.1-2,0.3-3c0.2-1.1,0.6-2.2,1.1-3.2c0.5-1.1,1.2-2.1,2-3.1
		s1.9-1.9,3.2-2.6c1.3-0.8,2.7-1.3,4.5-1.8C739.9,576,741.9,575.8,744.1,575.8z M744.6,581.5c-2.7,0-4.8,0.3-6.5,0.9
		c-1.7,0.6-2.9,1.4-3.9,2.4c-0.9,1-1.6,2-1.9,3.1c-0.4,1.1-0.5,2.2-0.5,3.3c0,1.7,0.4,3.3,1.1,4.8c0.7,1.5,1.6,2.8,2.7,4h17.5
		c0.4-0.3,0.9-0.8,1.5-1.3c0.5-0.5,1-1.2,1.5-1.9s0.8-1.5,1.2-2.4c0.3-0.9,0.5-1.9,0.5-3c0-1.6-0.3-3-1-4.3
		c-0.6-1.2-1.5-2.3-2.7-3.1s-2.5-1.5-4.2-1.9C748.2,581.7,746.5,581.5,744.6,581.5z"/>
</g>
<g class="st0">
	<path class="st1" d="M720.2,568.6h-6.1v-5.5h6.1V568.6z M761.4,568.5H728V563h33.5L761.4,568.5L761.4,568.5z"/>
</g>
<g class="st0">
	<path class="st1" d="M736.9,550c0.9,0,1.7-0.2,2.3-0.6c0.6-0.4,1.1-0.9,1.4-1.6c0.4-0.7,0.7-1.4,0.9-2.3c0.2-0.9,0.4-1.8,0.6-2.7
		c0.3-1.3,0.6-2.5,0.9-3.6c0.3-1.1,0.9-2.2,1.5-3.1c0.7-1,1.6-1.7,2.8-2.3s2.7-0.9,4.5-0.9c1.7,0,3.2,0.3,4.5,1s2.4,1.6,3.3,2.8
		s1.5,2.6,2,4.3s0.7,3.5,0.7,5.5c0,1.2-0.1,2.3-0.2,3.3c-0.1,1-0.3,1.9-0.5,2.6c-0.2,0.8-0.4,1.4-0.6,2c-0.2,0.5-0.4,1-0.6,1.3h-4.6
		c0.6-1.4,1-2.8,1.3-4.1c0.3-1.4,0.5-2.9,0.5-4.5c0-1.3-0.1-2.5-0.4-3.5c-0.2-1-0.6-1.9-1-2.7s-1-1.3-1.7-1.7s-1.5-0.6-2.4-0.6
		s-1.7,0.2-2.3,0.6c-0.6,0.4-1.1,0.9-1.5,1.5s-0.7,1.3-1,2.2c-0.3,0.8-0.5,1.7-0.7,2.6c-0.3,1.2-0.6,2.4-0.9,3.6s-0.8,2.3-1.5,3.3
		c-0.6,1-1.5,1.8-2.6,2.4c-1.1,0.6-2.5,0.9-4.2,0.9c-1.8,0-3.3-0.3-4.6-1c-1.3-0.6-2.4-1.5-3.2-2.6s-1.5-2.3-1.9-3.8
		c-0.4-1.4-0.6-2.9-0.6-4.5c0-1.9,0.2-3.6,0.5-5.2c0.4-1.6,0.8-3,1.3-4.3h4.7c-0.5,1.4-1,2.8-1.3,4.2s-0.5,2.9-0.5,4.3
		c0,1.3,0.1,2.3,0.4,3.2c0.3,0.9,0.6,1.6,1.1,2.2s1,1,1.6,1.3C735.4,549.9,736.1,550,736.9,550z"/>
</g>
<g class="st0">
	<path class="st1" d="M1164.8,719.9L1164.8,719.9c0.6,0.5,1.1,1.1,1.7,1.8s1,1.5,1.5,2.4s0.8,1.9,1,2.9c0.3,1.1,0.4,2.2,0.4,3.4
		c0,1.6-0.2,3.1-0.7,4.5s-1.2,2.5-2.1,3.5s-2.1,1.7-3.4,2.3c-1.3,0.5-2.9,0.8-4.5,0.8c-1.7,0-3.2-0.3-4.5-0.9
		c-1.3-0.6-2.4-1.4-3.3-2.5s-1.6-2.4-2.1-3.9s-0.7-3.2-0.7-5c0-1.7,0.2-3.3,0.5-4.8s0.6-2.8,1.1-3.9v-0.1h-2.3
		c-0.9,0-1.7,0.1-2.4,0.2c-0.7,0.1-1.3,0.3-1.9,0.6c-1.1,0.6-2.1,1.6-2.8,2.9c-0.7,1.3-1.1,3.1-1.1,5.4c0,1.7,0.2,3.3,0.5,4.8
		s0.8,3,1.3,4.5h-4.6c-0.3-0.6-0.5-1.2-0.8-2c-0.2-0.8-0.5-1.6-0.6-2.4c-0.2-0.8-0.3-1.7-0.4-2.7s-0.1-1.9-0.1-2.8
		c0-3.4,0.6-6.1,1.8-8.3c1.2-2.2,2.8-3.7,4.8-4.6c0.8-0.4,1.6-0.6,2.5-0.8s1.9-0.2,3-0.2h22.3v4.6L1164.8,719.9z M1153.9,720.1
		c-0.3,1-0.6,2.2-0.8,3.6c-0.3,1.4-0.4,2.9-0.4,4.6c0,2.3,0.5,4.1,1.5,5.4c1,1.3,2.5,2,4.5,2c1,0,1.9-0.2,2.7-0.5s1.4-0.8,1.9-1.4
		c0.5-0.6,0.9-1.3,1.1-2c0.2-0.8,0.4-1.6,0.4-2.5c0-1.2-0.2-2.3-0.5-3.3s-0.7-1.9-1.2-2.7s-0.9-1.5-1.4-2s-0.8-1-1.1-1.2
		L1153.9,720.1L1153.9,720.1z"/>
</g>
<g class="st0">
	<path class="st1" d="M1151.2,675.9c3.1,0,5.8,0.4,8.1,1.3c2.3,0.8,4.2,2,5.7,3.3c1.5,1.4,2.6,3,3.3,4.8c0.7,1.8,1.1,3.6,1.1,5.5
		c0,1.4-0.2,2.7-0.5,3.8c-0.4,1.1-0.8,2-1.3,2.8s-1,1.4-1.5,1.8c-0.5,0.5-0.9,0.8-1.2,1v0.1l3.7,1.2v4.1h-51v-5.5h20.7V700
		c-1.3-1.2-2.3-2.6-3-4.2c-0.7-1.6-1.1-3.4-1.1-5.5c0-0.9,0.1-2,0.3-3c0.2-1.1,0.6-2.2,1.1-3.2c0.5-1.1,1.2-2.1,2-3.1
		s1.9-1.9,3.2-2.6c1.3-0.8,2.7-1.3,4.5-1.8C1147,676.1,1149,675.9,1151.2,675.9z M1151.7,681.6c-2.7,0-4.8,0.3-6.5,0.9
		c-1.7,0.6-2.9,1.4-3.9,2.4c-0.9,1-1.6,2-1.9,3.1c-0.4,1.1-0.5,2.2-0.5,3.3c0,1.7,0.4,3.3,1.1,4.8s1.6,2.8,2.7,4h17.5
		c0.4-0.3,0.9-0.8,1.5-1.3c0.5-0.5,1-1.2,1.5-1.9s0.8-1.5,1.2-2.4c0.3-0.9,0.5-1.9,0.5-3c0-1.6-0.3-3-1-4.3
		c-0.6-1.2-1.5-2.3-2.7-3.1s-2.5-1.5-4.2-1.9C1155.4,681.8,1153.6,681.6,1151.7,681.6z"/>
</g>
<g class="st0">
	<path class="st1" d="M1121.8,649.1c-0.1,0.7-0.2,1.5-0.3,2.3s-0.1,1.6-0.1,2.2c0,1.2,0.2,2.3,0.5,3.3s0.8,1.8,1.5,2.4
		c0.7,0.7,1.5,1.2,2.6,1.5c1.1,0.4,2.4,0.5,4,0.5h5.1v-10h4.7v10h28.8v5.5h-28.8v5.9h-4.7v-5.9h-5.1c-2.4,0-4.5-0.3-6.1-1
		c-1.7-0.6-3-1.5-4.1-2.7c-1.1-1.1-1.9-2.5-2.4-4s-0.8-3.2-0.8-4.9c0-1.1,0.1-2.2,0.2-3.1c0.1-1,0.2-1.7,0.4-2.1L1121.8,649.1
		L1121.8,649.1z"/>
</g>
<g class="st0">
	<path class="st1" d="M1164.8,627.4L1164.8,627.4c0.6,0.5,1.1,1.1,1.7,1.8s1,1.5,1.5,2.4s0.8,1.9,1,2.9c0.3,1.1,0.4,2.2,0.4,3.4
		c0,1.6-0.2,3.1-0.7,4.5s-1.2,2.5-2.1,3.5s-2.1,1.7-3.4,2.3c-1.3,0.5-2.9,0.8-4.5,0.8c-1.7,0-3.2-0.3-4.5-0.9
		c-1.3-0.6-2.4-1.4-3.3-2.5s-1.6-2.4-2.1-3.9s-0.7-3.2-0.7-5c0-1.7,0.2-3.3,0.5-4.8s0.6-2.8,1.1-3.9v-0.1h-2.3
		c-0.9,0-1.7,0.1-2.4,0.2c-0.7,0.1-1.3,0.3-1.9,0.6c-1.1,0.6-2.1,1.6-2.8,2.9c-0.7,1.3-1.1,3.1-1.1,5.4c0,1.7,0.2,3.3,0.5,4.8
		s0.8,3,1.3,4.5h-4.6c-0.3-0.6-0.5-1.2-0.8-2c-0.2-0.8-0.5-1.6-0.6-2.4c-0.2-0.8-0.3-1.7-0.4-2.7s-0.1-1.9-0.1-2.8
		c0-3.4,0.6-6.1,1.8-8.3c1.2-2.2,2.8-3.7,4.8-4.6c0.8-0.4,1.6-0.6,2.5-0.8s1.9-0.2,3-0.2h22.3v4.6L1164.8,627.4z M1153.9,627.6
		c-0.3,1-0.6,2.2-0.8,3.6c-0.3,1.4-0.4,2.9-0.4,4.6c0,2.3,0.5,4.1,1.5,5.4c1,1.3,2.5,2,4.5,2c1,0,1.9-0.2,2.7-0.5s1.4-0.8,1.9-1.4
		c0.5-0.6,0.9-1.3,1.1-2c0.2-0.8,0.4-1.6,0.4-2.5c0-1.2-0.2-2.3-0.5-3.3s-0.7-1.9-1.2-2.7s-0.9-1.5-1.4-2s-0.8-1-1.1-1.2
		L1153.9,627.6L1153.9,627.6z"/>
</g>
<g class="st0">
	<path class="st1" d="M1168.5,613.1h-51v-5.5h51V613.1z"/>
</g>
<g class="st0">
	<path class="st1" d="M1168.5,598.4h-51v-5.5h51V598.4z"/>
</g>
<g class="st0">
	<path class="st1" d="M1211.8,735.5c0.9,0,1.7-0.2,2.3-0.6c0.6-0.4,1.1-0.9,1.4-1.6c0.4-0.7,0.7-1.4,0.9-2.3
		c0.2-0.9,0.4-1.8,0.6-2.7c0.3-1.3,0.6-2.5,0.9-3.6s0.9-2.2,1.5-3.1c0.7-1,1.6-1.7,2.8-2.3c1.2-0.6,2.7-0.9,4.5-0.9
		c1.7,0,3.2,0.3,4.5,1s2.4,1.6,3.3,2.8s1.5,2.6,2,4.3s0.7,3.5,0.7,5.5c0,1.2-0.1,2.3-0.2,3.3s-0.3,1.9-0.5,2.6
		c-0.2,0.8-0.4,1.4-0.6,2c-0.2,0.5-0.4,1-0.6,1.3h-4.6c0.6-1.4,1-2.8,1.3-4.1c0.3-1.4,0.5-2.9,0.5-4.5c0-1.3-0.1-2.5-0.4-3.5
		c-0.2-1-0.6-1.9-1-2.7s-1-1.3-1.7-1.7s-1.5-0.6-2.4-0.6s-1.7,0.2-2.3,0.6c-0.6,0.4-1.1,0.9-1.5,1.5s-0.7,1.3-1,2.2
		c-0.3,0.8-0.5,1.7-0.7,2.6c-0.3,1.2-0.6,2.4-0.9,3.6s-0.8,2.3-1.5,3.3c-0.6,1-1.5,1.8-2.6,2.4c-1.1,0.6-2.5,0.9-4.2,0.9
		c-1.8,0-3.3-0.3-4.6-1c-1.3-0.6-2.4-1.5-3.2-2.6c-0.8-1.1-1.5-2.3-1.9-3.8c-0.4-1.4-0.6-2.9-0.6-4.5c0-1.9,0.2-3.6,0.5-5.2
		c0.4-1.6,0.8-3,1.3-4.3h4.7c-0.5,1.4-1,2.8-1.3,4.2s-0.5,2.9-0.5,4.3c0,1.3,0.1,2.3,0.4,3.2s0.6,1.6,1.1,2.2s1,1,1.6,1.3
		C1210.4,735.4,1211.1,735.5,1211.8,735.5z"/>
</g>
<g class="st0">
	<path class="st1" d="M1236.4,692.9c0.2,0.5,0.4,1.2,0.5,2.1s0.3,2.1,0.3,3.5c0,1.8-0.2,3.3-0.7,4.6c-0.4,1.3-1.1,2.4-1.9,3.2
		c-0.8,0.9-1.8,1.5-2.9,1.9c-1.2,0.4-2.4,0.6-3.8,0.6h-20.4v6.4h-4.7v-6.4h-9.2v-5.5h9.2v-10h4.7v10h19.5c0.8,0,1.5-0.1,2.1-0.3
		c0.7-0.2,1.2-0.6,1.7-1.1s0.9-1.1,1.1-1.8c0.3-0.8,0.4-1.7,0.4-2.7c0-0.7-0.1-1.5-0.2-2.3s-0.3-1.6-0.5-2.2H1236.4z"/>
</g>
<g class="st0">
	<path class="st1" d="M1232.7,666.9L1232.7,666.9c0.6,0.5,1.1,1.1,1.7,1.8s1,1.5,1.5,2.4s0.8,1.9,1,2.9c0.3,1.1,0.4,2.2,0.4,3.4
		c0,1.6-0.2,3.1-0.7,4.5s-1.2,2.5-2.1,3.5s-2.1,1.7-3.4,2.3c-1.3,0.5-2.9,0.8-4.5,0.8c-1.7,0-3.2-0.3-4.5-0.9
		c-1.3-0.6-2.4-1.4-3.3-2.5s-1.6-2.4-2.1-3.9s-0.7-3.2-0.7-5c0-1.7,0.2-3.3,0.5-4.8s0.6-2.8,1.1-3.9v-0.1h-2.3
		c-0.9,0-1.7,0.1-2.4,0.2c-0.7,0.1-1.3,0.3-1.9,0.6c-1.1,0.6-2.1,1.6-2.8,2.9c-0.7,1.3-1.1,3.1-1.1,5.4c0,1.7,0.2,3.3,0.5,4.8
		s0.8,3,1.3,4.5h-4.6c-0.3-0.6-0.5-1.2-0.8-2c-0.2-0.8-0.5-1.6-0.6-2.4c-0.2-0.8-0.3-1.7-0.4-2.7s-0.1-1.9-0.1-2.8
		c0-3.4,0.6-6.1,1.8-8.3c1.2-2.2,2.8-3.7,4.8-4.6c0.8-0.4,1.6-0.6,2.5-0.8s1.9-0.2,3-0.2h22.3v4.6L1232.7,666.9z M1221.7,667.1
		c-0.3,1-0.6,2.2-0.8,3.6c-0.3,1.4-0.4,2.9-0.4,4.6c0,2.3,0.5,4.1,1.5,5.4c1,1.3,2.5,2,4.5,2c1,0,1.9-0.2,2.7-0.5s1.4-0.8,1.9-1.4
		c0.5-0.6,0.9-1.3,1.1-2c0.2-0.8,0.4-1.6,0.4-2.5c0-1.2-0.2-2.3-0.5-3.3s-0.7-1.9-1.2-2.7s-0.9-1.5-1.4-2s-0.8-1-1.1-1.2
		L1221.7,667.1L1221.7,667.1z"/>
</g>
<g class="st0">
	<path class="st1" d="M1220.1,654.5c-2.3,0-4.4-0.2-6.2-0.7s-3.4-1.1-4.7-1.8c-1.3-0.8-2.5-1.6-3.4-2.6s-1.6-2.1-2.2-3.1
		s-1-2.2-1.2-3.3s-0.4-2.2-0.4-3.2c0-2,0.3-3.8,1-5.3s1.7-2.9,3-4.1v-0.1h-20.7v-5.5h51v4.1l-3.7,1.1v0.1c0.5,0.4,1.1,0.9,1.6,1.5
		c0.6,0.6,1.1,1.2,1.5,2s0.8,1.6,1.1,2.6c0.3,1,0.4,2.2,0.4,3.5c0,1.8-0.3,3.6-0.9,5.4s-1.6,3.3-3,4.7s-3.1,2.5-5.3,3.3
		C1225.8,654.1,1223.2,654.5,1220.1,654.5z M1220,648.8c1.9,0,3.7-0.2,5.2-0.7c1.6-0.4,2.9-1.1,4-1.9s1.9-1.8,2.5-3s0.9-2.6,0.9-4.1
		c0-1.2-0.2-2.2-0.5-3.1c-0.3-0.9-0.7-1.8-1.2-2.5s-1-1.4-1.5-1.9s-1-0.9-1.5-1.3h-17.5c-1.2,1.1-2.1,2.4-2.8,3.9
		c-0.7,1.5-1,3.1-1,4.8c0,1,0.2,2.1,0.6,3.3c0.4,1.1,1.1,2.2,2.1,3.2s2.4,1.8,4.1,2.4C1215.2,648.5,1217.3,648.8,1220,648.8z"/>
</g>
<g class="st0">
	<path class="st1" d="M1236.4,597.2c0.2,0.5,0.4,1.2,0.5,2.1s0.3,2.1,0.3,3.5c0,1.8-0.2,3.3-0.7,4.6c-0.4,1.3-1.1,2.4-1.9,3.2
		c-0.8,0.9-1.8,1.5-2.9,1.9c-1.2,0.4-2.4,0.6-3.8,0.6h-20.4v6.4h-4.7v-6.4h-9.2v-5.5h9.2v-10h4.7v10h19.5c0.8,0,1.5-0.1,2.1-0.3
		c0.7-0.2,1.2-0.6,1.7-1.1s0.9-1.1,1.1-1.8c0.3-0.8,0.4-1.7,0.4-2.7c0-0.7-0.1-1.5-0.2-2.3s-0.3-1.6-0.5-2.2H1236.4z"/>
</g>
<g>
	<g>
		<g>
			<defs>
				<rect id="SVGID_11_" x="1026.7" y="267.2" width="85.4" height="515.6"/>
			</defs>
			<clipPath id="SVGID_12_">
				<use xlink:href="#SVGID_11_"  style="overflow:visible;"/>
			</clipPath>
			<g class="st7">
				<path class="st1" d="M1061,725.4c0-1.4,0.2-2.6,0.5-3.7s0.8-1.9,1.3-2.7s1-1.3,1.5-1.8c0.5-0.4,0.9-0.7,1.2-0.9v-0.1l-3.7-1.1
					v-4h34.4c2.5,0,4.7,0.4,6.5,1.2s3.4,2,4.6,3.5s2.1,3.3,2.8,5.3c0.6,2.1,0.9,4.4,0.9,6.9c0,2.1-0.2,4.1-0.6,5.7
					c-0.4,1.7-0.8,3-1.3,4h-4.5c0.3-0.8,0.6-1.5,0.8-2.3c0.2-0.7,0.4-1.5,0.5-2.3s0.3-1.6,0.3-2.4s0.1-1.7,0.1-2.7
					c0-3.8-0.9-6.7-2.7-8.8c-1.8-2-4.5-3-8.1-3h-4.3v0.1c1.3,1.2,2.2,2.5,2.9,4.1c0.6,1.5,1,3.3,1,5.3c0,0.9-0.1,1.9-0.3,2.9
					s-0.6,2.1-1,3.1c-0.5,1-1.1,2.1-1.9,3s-1.8,1.8-3,2.5s-2.7,1.3-4.3,1.8c-1.7,0.4-3.6,0.7-5.8,0.7c-3,0-5.7-0.4-7.9-1.2
					c-2.2-0.8-4.1-1.9-5.5-3.2c-1.5-1.3-2.5-2.9-3.3-4.6C1061.3,729.1,1061,727.3,1061,725.4z M1078.3,734.3c2.6,0,4.6-0.3,6.3-0.9
					c1.6-0.6,2.9-1.4,3.8-2.3s1.5-2,1.8-3.1s0.5-2.2,0.5-3.2c0-1.6-0.3-3.2-1-4.6c-0.7-1.4-1.6-2.7-2.7-3.8h-17
					c-0.4,0.3-0.9,0.7-1.4,1.2s-1,1.1-1.5,1.8c-0.4,0.7-0.8,1.5-1.1,2.4c-0.3,0.9-0.5,1.9-0.5,2.9c0,1.6,0.3,3,0.9,4.2
					s1.5,2.2,2.6,3s2.5,1.4,4,1.8C1074.6,734.1,1076.4,734.3,1078.3,734.3z"/>
				<path class="st1" d="M1090.5,686.8c0-1.8-0.1-3.4-0.4-4.8c-0.3-1.4-0.7-2.9-1.2-4.3h4.4c0.6,1.2,1,2.6,1.4,4.3
					c0.3,1.7,0.5,3.5,0.5,5.5c0,2.3-0.3,4.5-0.9,6.5s-1.5,3.8-2.9,5.3c-1.3,1.5-3,2.7-5.2,3.5c-2.1,0.8-4.7,1.3-7.7,1.3
					s-5.5-0.4-7.7-1.2s-4-1.9-5.5-3.3c-1.5-1.4-2.6-2.9-3.3-4.7c-0.7-1.8-1.1-3.6-1.1-5.6c0-1.8,0.3-3.5,0.9-5.1s1.6-2.9,2.9-4.1
					s3-2.1,5-2.7s4.5-1,7.4-1c0.3,0,0.5,0,0.7,0s0.6,0,1.3,0v22.4c2.1,0,3.8-0.3,5.3-0.9c1.4-0.6,2.6-1.5,3.5-2.6s1.6-2.4,2-3.8
					C1090.3,690,1090.5,688.5,1090.5,686.8z M1065.5,689.6c0,1.2,0.2,2.4,0.7,3.4s1.1,2,1.9,2.8s1.8,1.4,2.9,1.9s2.3,0.8,3.5,0.9
					V682c-1.3,0-2.5,0.2-3.6,0.5s-2.1,0.8-2.9,1.5s-1.5,1.4-1.9,2.4C1065.8,687.2,1065.5,688.3,1065.5,689.6z"/>
				<path class="st1" d="M1067.2,650.2c3,0.7,5.6,1.3,7.7,2l19.4,5.3v5.4l-32.5,10.5V668l20.2-6.1c2.7-0.8,4.8-1.4,6.4-1.8V660
					c-1.6-0.4-4-1-7.1-1.8l-19.5-5.4v-5.3l19.5-5.9c2.6-0.8,5-1.4,7.1-2v-0.1c-2.1-0.5-4.2-1.2-6.4-1.8l-20.2-6.1v-5.3l32.5,10.8
					v5.6l-19.4,5.4C1072.6,648.7,1070,649.4,1067.2,650.2L1067.2,650.2z"/>
				<path class="st1" d="M1054.3,604h-5.7v-5.4h5.7V604z M1054.3,617h-5.7v-5.4h5.7V617z M1095.2,607.9c0,1.7-0.2,3.2-0.5,4.5
					c-0.4,1.3-0.9,2.5-1.5,3.5c-0.7,1-1.5,1.9-2.4,2.6c-0.9,0.7-1.9,1.3-3,1.7c-0.8,0.3-1.7,0.5-2.7,0.7c-1,0.1-2.1,0.2-3.2,0.2
					H1062v-5.3h19.9c1.8,0,3.3-0.2,4.5-0.7c1.4-0.5,2.4-1.4,3.2-2.6c0.8-1.2,1.2-2.8,1.2-4.7c0-2-0.4-3.6-1.3-4.8s-2-2.1-3.5-2.6
					c-1.1-0.4-2.5-0.6-4.1-0.6H1062v-5.3h20c1.1,0,2.1,0.1,3.1,0.2c0.9,0.1,1.8,0.3,2.6,0.6c1.1,0.4,2.1,1,3.1,1.7
					c0.9,0.7,1.8,1.6,2.4,2.6c0.7,1,1.2,2.3,1.6,3.6C1095,604.6,1095.2,606.1,1095.2,607.9z"/>
				<path class="st1" d="M1066.1,568.2v0.4c0,1.3,0.1,2.5,0.3,3.7c0.2,1.2,0.6,2.3,1,3.4c0.5,1.1,1,2,1.7,2.9s1.5,1.6,2.4,2.1h22.6
					v5.3h-32.5v-4.1l5.2-1v-0.1c-0.8-0.5-1.6-1.2-2.4-1.9c-0.7-0.8-1.4-1.6-1.9-2.6s-1-2-1.3-3.1s-0.5-2.3-0.5-3.6
					c0-0.2,0-0.5,0-0.7s0-0.4,0.1-0.6h5.3L1066.1,568.2L1066.1,568.2z"/>
				<path class="st1" d="M1066.5,546.5L1066.5,546.5l-0.1,17.8h-4.5v-24.6h3.3l24.4,18h0.1v-19.2h4.5v26.3h-2.9L1066.5,546.5z"/>
			</g>
		</g>
	</g>
</g>
</svg>
